<mxfile host="65bd71144e">
    <diagram id="kgpKYQtTHZ0yAKxKKP6v" name="Page-1">
        <mxGraphModel dx="1796" dy="779" grid="1" gridSize="10" guides="1" tooltips="1" connect="1" arrows="1" fold="1" page="1" pageScale="1" pageWidth="850" pageHeight="1100" math="0" shadow="0">
            <root>
                <mxCell id="0"/>
                <mxCell id="1" parent="0"/>
                <mxCell id="Rm_6-j9vatiKXGecLMbR-39" value="" style="rounded=1;whiteSpace=wrap;html=1;shadow=0;glass=0;sketch=0;strokeWidth=3;fontFamily=Lucida Console;fontSize=16;align=left;strokeColor=#7F7F7F;fillColor=#FF9715;" parent="1" vertex="1">
                    <mxGeometry x="850" y="1303" width="740" height="617" as="geometry"/>
                </mxCell>
                <mxCell id="Xno3NGJmczsKOu3R2XB9-221" value="03_Save_references.R" style="text;whiteSpace=wrap;fontSize=19;fontFamily=Lucida Console;fontColor=#FFFFFF;fontStyle=1;rotation=0;fillColor=none;labelBackgroundColor=none;labelBorderColor=none;" parent="1" vertex="1">
                    <mxGeometry x="988.5" y="1696.25" width="241.5" height="30" as="geometry"/>
                </mxCell>
                <mxCell id="Xno3NGJmczsKOu3R2XB9-226" style="edgeStyle=orthogonalEdgeStyle;orthogonalLoop=1;jettySize=auto;html=1;fontFamily=Lucida Console;fontSize=15;fontColor=default;endArrow=classic;rounded=0;strokeColor=#4D4D4D;sketch=0;strokeWidth=5;" parent="1" source="Xno3NGJmczsKOu3R2XB9-217" target="Xno3NGJmczsKOu3R2XB9-220" edge="1">
                    <mxGeometry relative="1" as="geometry"/>
                </mxCell>
                <mxCell id="Xno3NGJmczsKOu3R2XB9-217" value="" style="rounded=1;whiteSpace=wrap;html=1;absoluteArcSize=1;arcSize=14;strokeWidth=3;shadow=1;glass=0;sketch=0;fillColor=#ffffff;fontFamily=Lucida Console;fontSize=15;align=left;strokeColor=#7F7F7F;" parent="1" vertex="1">
                    <mxGeometry x="984.5" y="1550" width="549.5" height="121.5" as="geometry"/>
                </mxCell>
                <mxCell id="Xno3NGJmczsKOu3R2XB9-227" style="edgeStyle=orthogonalEdgeStyle;orthogonalLoop=1;jettySize=auto;html=1;fontFamily=Lucida Console;fontSize=15;fontColor=default;endArrow=classic;rounded=0;strokeColor=#4D4D4D;sketch=0;strokeWidth=5;exitX=0.5;exitY=1;exitDx=0;exitDy=0;" parent="1" source="Xno3NGJmczsKOu3R2XB9-198" target="Xno3NGJmczsKOu3R2XB9-217" edge="1">
                    <mxGeometry relative="1" as="geometry">
                        <mxPoint x="1259.25" y="1520" as="sourcePoint"/>
                    </mxGeometry>
                </mxCell>
                <mxCell id="Xno3NGJmczsKOu3R2XB9-198" value="" style="rounded=1;whiteSpace=wrap;html=1;absoluteArcSize=1;arcSize=14;strokeWidth=3;shadow=1;glass=0;sketch=0;fillColor=#ffffff;fontFamily=Lucida Console;fontSize=15;align=left;strokeColor=#7F7F7F;" parent="1" vertex="1">
                    <mxGeometry x="984.5" y="1368.5" width="549.5" height="121.5" as="geometry"/>
                </mxCell>
                <mxCell id="vCBsO0bPYM04PooFfdqD-21" value="" style="rounded=0;whiteSpace=wrap;html=1;fontFamily=Lucida Console;strokeColor=#7F7F7F;strokeWidth=3;" parent="1" vertex="1">
                    <mxGeometry x="500" y="1986" width="1110" height="330" as="geometry"/>
                </mxCell>
                <mxCell id="D8-KQS5gUGrc6W0yMjmw-186" value="" style="rounded=1;whiteSpace=wrap;html=1;shadow=0;glass=0;sketch=0;strokeWidth=1;fontFamily=Lucida Console;fontSize=16;align=left;strokeColor=#7F7F7F;fontColor=#ffffff;fillColor=#4A5783;" parent="1" vertex="1">
                    <mxGeometry x="-460" y="108.75" width="820" height="1110" as="geometry"/>
                </mxCell>
                <mxCell id="Xno3NGJmczsKOu3R2XB9-230" style="edgeStyle=orthogonalEdgeStyle;orthogonalLoop=1;jettySize=auto;html=1;entryX=0;entryY=0.5;entryDx=0;entryDy=0;entryPerimeter=0;fontFamily=Lucida Console;fontSize=15;fontColor=default;endArrow=classic;rounded=0;strokeColor=#FFFFFF;sketch=0;strokeWidth=5;" parent="1" source="Xno3NGJmczsKOu3R2XB9-115" target="Xno3NGJmczsKOu3R2XB9-207" edge="1">
                    <mxGeometry relative="1" as="geometry">
                        <Array as="points">
                            <mxPoint x="-430" y="660"/>
                            <mxPoint x="-430" y="1126"/>
                        </Array>
                    </mxGeometry>
                </mxCell>
                <mxCell id="Xno3NGJmczsKOu3R2XB9-115" value="" style="rounded=1;whiteSpace=wrap;html=1;absoluteArcSize=1;arcSize=14;strokeWidth=3;shadow=1;glass=0;sketch=0;fillColor=#ffffff;fontFamily=Lucida Console;fontSize=15;align=left;strokeColor=#7F7F7F;" parent="1" vertex="1">
                    <mxGeometry x="-220" y="576.25" width="555" height="108" as="geometry"/>
                </mxCell>
                <mxCell id="Xno3NGJmczsKOu3R2XB9-132" style="edgeStyle=orthogonalEdgeStyle;orthogonalLoop=1;jettySize=auto;html=1;fontFamily=Lucida Console;fontSize=15;fontColor=default;endArrow=classic;rounded=0;strokeColor=#FFFFFF;sketch=0;strokeWidth=5;" parent="1" source="Xno3NGJmczsKOu3R2XB9-112" edge="1">
                    <mxGeometry relative="1" as="geometry">
                        <mxPoint x="210" y="576.75" as="targetPoint"/>
                        <Array as="points">
                            <mxPoint x="210" y="576.75"/>
                        </Array>
                    </mxGeometry>
                </mxCell>
                <mxCell id="Xno3NGJmczsKOu3R2XB9-112" value="" style="rounded=1;whiteSpace=wrap;html=1;absoluteArcSize=1;arcSize=14;strokeWidth=3;shadow=1;glass=0;sketch=0;fillColor=#ffffff;fontFamily=Lucida Console;fontSize=15;align=left;strokeColor=#7F7F7F;" parent="1" vertex="1">
                    <mxGeometry x="-220" y="456.25" width="555" height="85.5" as="geometry"/>
                </mxCell>
                <mxCell id="Xno3NGJmczsKOu3R2XB9-131" style="edgeStyle=orthogonalEdgeStyle;orthogonalLoop=1;jettySize=auto;html=1;fontFamily=Lucida Console;fontSize=15;fontColor=default;endArrow=classic;rounded=0;strokeColor=#FFFFFF;sketch=0;strokeWidth=5;" parent="1" source="Xno3NGJmczsKOu3R2XB9-107" target="Xno3NGJmczsKOu3R2XB9-112" edge="1">
                    <mxGeometry relative="1" as="geometry">
                        <Array as="points">
                            <mxPoint x="210" y="428.75"/>
                            <mxPoint x="210" y="428.75"/>
                        </Array>
                    </mxGeometry>
                </mxCell>
                <mxCell id="Xno3NGJmczsKOu3R2XB9-107" value="" style="rounded=1;whiteSpace=wrap;html=1;absoluteArcSize=1;arcSize=14;strokeWidth=3;shadow=1;glass=0;sketch=0;fillColor=#ffffff;fontFamily=Lucida Console;fontSize=15;align=left;strokeColor=#7F7F7F;" parent="1" vertex="1">
                    <mxGeometry x="-220" y="299" width="555" height="113" as="geometry"/>
                </mxCell>
                <mxCell id="ljsbQq2XFhJ2r-xU6_tJ-157" value="" style="rounded=1;whiteSpace=wrap;html=1;shadow=0;glass=0;sketch=0;strokeWidth=3;fontFamily=Lucida Console;fontSize=16;align=left;strokeColor=#7F7F7F;fontColor=#ffffff;fillColor=#FF685F;" parent="1" vertex="1">
                    <mxGeometry x="850" y="608.75" width="740" height="610" as="geometry"/>
                </mxCell>
                <mxCell id="4-9ThezMg6ETQRoq21p--4" style="edgeStyle=orthogonalEdgeStyle;rounded=0;orthogonalLoop=1;jettySize=auto;html=1;entryX=0.93;entryY=0.5;entryDx=0;entryDy=0;entryPerimeter=0;fontSize=15;fontFamily=Lucida Console;strokeColor=#4D4D4D;sketch=0;strokeWidth=5;" parent="1" source="ljsbQq2XFhJ2r-xU6_tJ-172" target="4-9ThezMg6ETQRoq21p--1" edge="1">
                    <mxGeometry relative="1" as="geometry">
                        <Array as="points">
                            <mxPoint x="1259" y="1247"/>
                        </Array>
                    </mxGeometry>
                </mxCell>
                <mxCell id="ljsbQq2XFhJ2r-xU6_tJ-172" value="" style="rounded=1;whiteSpace=wrap;html=1;absoluteArcSize=1;arcSize=14;strokeWidth=3;shadow=1;glass=0;sketch=0;fillColor=#ffffff;fontFamily=Lucida Console;fontSize=15;align=left;strokeColor=#7F7F7F;" parent="1" vertex="1">
                    <mxGeometry x="984.5" y="648.75" width="549.5" height="530" as="geometry"/>
                </mxCell>
                <mxCell id="ljsbQq2XFhJ2r-xU6_tJ-39" value="" style="rounded=1;whiteSpace=wrap;html=1;shadow=0;glass=0;sketch=0;strokeWidth=3;fontFamily=Lucida Console;fontSize=16;align=left;strokeColor=#7F7F7F;fontColor=#000000;fillColor=#D3588B;" parent="1" vertex="1">
                    <mxGeometry x="854.5" y="123.5" width="732" height="211" as="geometry"/>
                </mxCell>
                <mxCell id="Xno3NGJmczsKOu3R2XB9-151" style="edgeStyle=orthogonalEdgeStyle;orthogonalLoop=1;jettySize=auto;html=1;fontFamily=Lucida Console;fontSize=15;fontColor=default;endArrow=classic;rounded=0;strokeColor=#4D4D4D;sketch=0;strokeWidth=5;" parent="1" source="D8-KQS5gUGrc6W0yMjmw-116" target="Xno3NGJmczsKOu3R2XB9-144" edge="1">
                    <mxGeometry relative="1" as="geometry">
                        <Array as="points">
                            <mxPoint x="58" y="1246.75"/>
                        </Array>
                    </mxGeometry>
                </mxCell>
                <mxCell id="D8-KQS5gUGrc6W0yMjmw-116" value="" style="rounded=1;whiteSpace=wrap;html=1;absoluteArcSize=1;arcSize=14;strokeWidth=3;shadow=1;glass=0;sketch=0;fillColor=#ffffff;fontFamily=Lucida Console;fontSize=15;align=left;strokeColor=#7F7F7F;" parent="1" vertex="1">
                    <mxGeometry x="-220" y="954.25" width="555" height="230" as="geometry"/>
                </mxCell>
                <mxCell id="Xno3NGJmczsKOu3R2XB9-229" style="edgeStyle=orthogonalEdgeStyle;orthogonalLoop=1;jettySize=auto;html=1;entryX=0;entryY=0.5;entryDx=0;entryDy=0;entryPerimeter=0;fontFamily=Lucida Console;fontSize=15;fontColor=default;endArrow=classic;rounded=0;strokeColor=#FFFFFF;sketch=0;strokeWidth=5;" parent="1" source="D8-KQS5gUGrc6W0yMjmw-99" target="Xno3NGJmczsKOu3R2XB9-207" edge="1">
                    <mxGeometry relative="1" as="geometry">
                        <Array as="points">
                            <mxPoint x="-430" y="880"/>
                            <mxPoint x="-430" y="1126"/>
                        </Array>
                    </mxGeometry>
                </mxCell>
                <mxCell id="D8-KQS5gUGrc6W0yMjmw-99" value="" style="rounded=1;whiteSpace=wrap;html=1;absoluteArcSize=1;arcSize=14;strokeWidth=3;shadow=1;glass=0;sketch=0;fillColor=#ffffff;fontFamily=Lucida Console;fontSize=15;align=left;strokeColor=#7F7F7F;" parent="1" vertex="1">
                    <mxGeometry x="-220" y="725.37" width="555" height="178.88" as="geometry"/>
                </mxCell>
                <mxCell id="Xno3NGJmczsKOu3R2XB9-121" style="edgeStyle=orthogonalEdgeStyle;orthogonalLoop=1;jettySize=auto;html=1;fontFamily=Lucida Console;fontSize=15;fontColor=default;endArrow=classic;rounded=0;strokeColor=#FFFFFF;sketch=0;strokeWidth=5;" parent="1" source="D8-KQS5gUGrc6W0yMjmw-98" target="Xno3NGJmczsKOu3R2XB9-107" edge="1">
                    <mxGeometry relative="1" as="geometry">
                        <Array as="points">
                            <mxPoint x="210" y="248.75"/>
                            <mxPoint x="210" y="248.75"/>
                        </Array>
                    </mxGeometry>
                </mxCell>
                <mxCell id="D8-KQS5gUGrc6W0yMjmw-98" value="" style="rounded=1;whiteSpace=wrap;html=1;absoluteArcSize=1;arcSize=14;strokeWidth=3;shadow=1;glass=0;sketch=0;fillColor=#ffffff;fontFamily=Lucida Console;fontSize=15;align=left;strokeColor=#7F7F7F;" parent="1" vertex="1">
                    <mxGeometry x="-220" y="138.75" width="555" height="60" as="geometry"/>
                </mxCell>
                <mxCell id="Xno3NGJmczsKOu3R2XB9-119" style="edgeStyle=orthogonalEdgeStyle;orthogonalLoop=1;jettySize=auto;html=1;fontFamily=Lucida Console;fontSize=15;fontColor=default;endArrow=classic;rounded=0;strokeColor=#4D4D4D;sketch=0;strokeWidth=5;" parent="1" source="D8-KQS5gUGrc6W0yMjmw-4" target="Sd7WDtTeQVXePmLQlXHq-2" edge="1">
                    <mxGeometry relative="1" as="geometry"/>
                </mxCell>
                <mxCell id="D8-KQS5gUGrc6W0yMjmw-4" value="SOURCING" style="rounded=1;whiteSpace=wrap;html=1;fontFamily=Lucida Console;fontSize=21;sketch=0;fillColor=#4A5783;strokeColor=#7F7F7F;fontColor=#ffffff;fontStyle=1;strokeWidth=3;" parent="1" vertex="1">
                    <mxGeometry x="-770" y="138.75" width="160" height="80" as="geometry"/>
                </mxCell>
                <mxCell id="D8-KQS5gUGrc6W0yMjmw-12" value="min_n_of_control_points&amp;nbsp;" style="rounded=0;whiteSpace=wrap;html=1;glass=0;fontFamily=Lucida Console;fontSize=16;align=center;strokeColor=#F2FF15;fillColor=#F2FF15;shadow=0;sketch=1;fontStyle=1" parent="1" vertex="1">
                    <mxGeometry x="-171.25" y="502.5" width="257" height="30" as="geometry"/>
                </mxCell>
                <mxCell id="D8-KQS5gUGrc6W0yMjmw-13" value="min_n_levels" style="rounded=0;whiteSpace=wrap;html=1;glass=0;fontFamily=Lucida Console;fontSize=16;align=center;strokeColor=#F2FF15;fillColor=#F2FF15;shadow=0;sketch=1;fontStyle=1" parent="1" vertex="1">
                    <mxGeometry x="-171.25" y="595.25" width="260" height="30" as="geometry"/>
                </mxCell>
                <mxCell id="D8-KQS5gUGrc6W0yMjmw-16" value="&lt;span style=&quot;font-size: 16px;&quot;&gt;&amp;nbsp;Depositional environment&lt;/span&gt;" style="shape=table;html=1;whiteSpace=wrap;startSize=34;container=1;collapsible=0;childLayout=tableLayout;fontStyle=1;align=center;rounded=0;glass=1;fontFamily=Lucida Console;fontSize=15;sketch=1;strokeColor=#7F7F7F;" parent="1" vertex="1">
                    <mxGeometry x="-190" y="310.5" width="168" height="90" as="geometry"/>
                </mxCell>
                <mxCell id="D8-KQS5gUGrc6W0yMjmw-17" value="" style="shape=partialRectangle;html=1;whiteSpace=wrap;collapsible=0;dropTarget=0;pointerEvents=0;fillColor=none;top=0;left=0;bottom=0;right=0;points=[[0,0.5],[1,0.5]];portConstraint=eastwest;fontFamily=Lucida Console;" parent="D8-KQS5gUGrc6W0yMjmw-16" vertex="1">
                    <mxGeometry y="34" width="168" height="19" as="geometry"/>
                </mxCell>
                <mxCell id="D8-KQS5gUGrc6W0yMjmw-18" value="" style="shape=partialRectangle;html=1;whiteSpace=wrap;connectable=0;fillColor=none;top=0;left=0;bottom=0;right=0;overflow=hidden;fontFamily=Lucida Console;" parent="D8-KQS5gUGrc6W0yMjmw-17" vertex="1">
                    <mxGeometry width="60" height="19" as="geometry">
                        <mxRectangle width="60" height="19" as="alternateBounds"/>
                    </mxGeometry>
                </mxCell>
                <mxCell id="D8-KQS5gUGrc6W0yMjmw-19" value="" style="shape=partialRectangle;html=1;whiteSpace=wrap;connectable=0;fillColor=none;top=0;left=0;bottom=0;right=0;overflow=hidden;fontFamily=Lucida Console;" parent="D8-KQS5gUGrc6W0yMjmw-17" vertex="1">
                    <mxGeometry x="60" width="60" height="19" as="geometry">
                        <mxRectangle width="60" height="19" as="alternateBounds"/>
                    </mxGeometry>
                </mxCell>
                <mxCell id="D8-KQS5gUGrc6W0yMjmw-20" value="" style="shape=partialRectangle;html=1;whiteSpace=wrap;connectable=0;fillColor=none;top=0;left=0;bottom=0;right=0;overflow=hidden;fontFamily=Lucida Console;" parent="D8-KQS5gUGrc6W0yMjmw-17" vertex="1">
                    <mxGeometry x="120" width="48" height="19" as="geometry">
                        <mxRectangle width="48" height="19" as="alternateBounds"/>
                    </mxGeometry>
                </mxCell>
                <mxCell id="D8-KQS5gUGrc6W0yMjmw-21" value="" style="shape=partialRectangle;html=1;whiteSpace=wrap;collapsible=0;dropTarget=0;pointerEvents=0;fillColor=none;top=0;left=0;bottom=0;right=0;points=[[0,0.5],[1,0.5]];portConstraint=eastwest;fontFamily=Lucida Console;" parent="D8-KQS5gUGrc6W0yMjmw-16" vertex="1">
                    <mxGeometry y="53" width="168" height="18" as="geometry"/>
                </mxCell>
                <mxCell id="D8-KQS5gUGrc6W0yMjmw-22" value="" style="shape=partialRectangle;html=1;whiteSpace=wrap;connectable=0;fillColor=none;top=0;left=0;bottom=0;right=0;overflow=hidden;fontFamily=Lucida Console;" parent="D8-KQS5gUGrc6W0yMjmw-21" vertex="1">
                    <mxGeometry width="60" height="18" as="geometry">
                        <mxRectangle width="60" height="18" as="alternateBounds"/>
                    </mxGeometry>
                </mxCell>
                <mxCell id="D8-KQS5gUGrc6W0yMjmw-23" value="" style="shape=partialRectangle;html=1;whiteSpace=wrap;connectable=0;fillColor=none;top=0;left=0;bottom=0;right=0;overflow=hidden;fontFamily=Lucida Console;" parent="D8-KQS5gUGrc6W0yMjmw-21" vertex="1">
                    <mxGeometry x="60" width="60" height="18" as="geometry">
                        <mxRectangle width="60" height="18" as="alternateBounds"/>
                    </mxGeometry>
                </mxCell>
                <mxCell id="D8-KQS5gUGrc6W0yMjmw-24" value="" style="shape=partialRectangle;html=1;whiteSpace=wrap;connectable=0;fillColor=none;top=0;left=0;bottom=0;right=0;overflow=hidden;fontFamily=Lucida Console;" parent="D8-KQS5gUGrc6W0yMjmw-21" vertex="1">
                    <mxGeometry x="120" width="48" height="18" as="geometry">
                        <mxRectangle width="48" height="18" as="alternateBounds"/>
                    </mxGeometry>
                </mxCell>
                <mxCell id="D8-KQS5gUGrc6W0yMjmw-25" value="" style="shape=partialRectangle;html=1;whiteSpace=wrap;collapsible=0;dropTarget=0;pointerEvents=0;fillColor=none;top=0;left=0;bottom=0;right=0;points=[[0,0.5],[1,0.5]];portConstraint=eastwest;fontFamily=Lucida Console;" parent="D8-KQS5gUGrc6W0yMjmw-16" vertex="1">
                    <mxGeometry y="71" width="168" height="19" as="geometry"/>
                </mxCell>
                <mxCell id="D8-KQS5gUGrc6W0yMjmw-26" value="" style="shape=partialRectangle;html=1;whiteSpace=wrap;connectable=0;fillColor=none;top=0;left=0;bottom=0;right=0;overflow=hidden;fontFamily=Lucida Console;" parent="D8-KQS5gUGrc6W0yMjmw-25" vertex="1">
                    <mxGeometry width="60" height="19" as="geometry">
                        <mxRectangle width="60" height="19" as="alternateBounds"/>
                    </mxGeometry>
                </mxCell>
                <mxCell id="D8-KQS5gUGrc6W0yMjmw-27" value="" style="shape=partialRectangle;html=1;whiteSpace=wrap;connectable=0;fillColor=none;top=0;left=0;bottom=0;right=0;overflow=hidden;fontFamily=Lucida Console;" parent="D8-KQS5gUGrc6W0yMjmw-25" vertex="1">
                    <mxGeometry x="60" width="60" height="19" as="geometry">
                        <mxRectangle width="60" height="19" as="alternateBounds"/>
                    </mxGeometry>
                </mxCell>
                <mxCell id="D8-KQS5gUGrc6W0yMjmw-28" value="" style="shape=partialRectangle;html=1;whiteSpace=wrap;connectable=0;fillColor=none;top=0;left=0;bottom=0;right=0;overflow=hidden;fontFamily=Lucida Console;" parent="D8-KQS5gUGrc6W0yMjmw-25" vertex="1">
                    <mxGeometry x="120" width="48" height="19" as="geometry">
                        <mxRectangle width="48" height="19" as="alternateBounds"/>
                    </mxGeometry>
                </mxCell>
                <mxCell id="D8-KQS5gUGrc6W0yMjmw-50" value="" style="verticalLabelPosition=bottom;verticalAlign=top;html=1;shape=mxgraph.basic.tick;rounded=0;glass=1;fontFamily=Lucida Console;fontSize=15;align=left;fillColor=#00507B;strokeWidth=1;strokeColor=none;" parent="1" vertex="1">
                    <mxGeometry x="-60" y="359.75" width="40" height="40" as="geometry"/>
                </mxCell>
                <mxCell id="D8-KQS5gUGrc6W0yMjmw-51" value="" style="verticalLabelPosition=bottom;verticalAlign=top;html=1;shape=mxgraph.basic.tick;rounded=0;glass=1;fontFamily=Lucida Console;fontSize=15;align=left;fillColor=#00507B;strokeWidth=1;strokeColor=none;" parent="1" vertex="1">
                    <mxGeometry x="-60" y="338.25" width="40" height="40" as="geometry"/>
                </mxCell>
                <mxCell id="D8-KQS5gUGrc6W0yMjmw-55" value="other" style="shape=cylinder3;whiteSpace=wrap;html=1;boundedLbl=1;backgroundOutline=1;size=15;rounded=0;glass=1;fontFamily=Lucida Console;fontSize=21;sketch=1;strokeColor=#7F7F7F;strokeWidth=3;" parent="1" vertex="1">
                    <mxGeometry x="-399" y="734.25" width="120" height="60" as="geometry"/>
                </mxCell>
                <mxCell id="D8-KQS5gUGrc6W0yMjmw-56" value="&amp;nbsp;Geographical criteria" style="rounded=0;whiteSpace=wrap;html=1;glass=0;fontFamily=Lucida Console;fontSize=16;align=center;strokeColor=#F2FF15;fillColor=#F2FF15;shadow=0;sketch=1;fontStyle=1" parent="1" vertex="1">
                    <mxGeometry x="-171.25" y="742.87" width="261" height="30" as="geometry"/>
                </mxCell>
                <mxCell id="D8-KQS5gUGrc6W0yMjmw-62" value="&lt;span style=&quot;&quot;&gt;min_n_levels&lt;/span&gt;" style="rounded=0;whiteSpace=wrap;html=1;glass=0;fontFamily=Lucida Console;fontSize=16;align=center;strokeColor=#F2FF15;fillColor=#F2FF15;shadow=0;sketch=1;fontStyle=1" parent="1" vertex="1">
                    <mxGeometry x="-171.25" y="784.25" width="261" height="30" as="geometry"/>
                </mxCell>
                <mxCell id="D8-KQS5gUGrc6W0yMjmw-96" value="othe source datasets" style="strokeWidth=2;html=1;shape=mxgraph.flowchart.multi-document;whiteSpace=wrap;rounded=0;shadow=1;glass=0;sketch=0;fillColor=#ffffff;fontFamily=Lucida Console;fontSize=15;align=center;strokeColor=#7F7F7F;" parent="1" vertex="1">
                    <mxGeometry x="-123.5" y="832.25" width="170" height="60" as="geometry"/>
                </mxCell>
                <mxCell id="Xno3NGJmczsKOu3R2XB9-135" style="edgeStyle=orthogonalEdgeStyle;orthogonalLoop=1;jettySize=auto;html=1;fontFamily=Lucida Console;fontSize=15;fontColor=default;endArrow=classic;rounded=0;strokeColor=#FFFFFF;sketch=0;strokeWidth=5;exitX=0.93;exitY=0.5;exitDx=0;exitDy=0;exitPerimeter=0;" parent="1" source="Xno3NGJmczsKOu3R2XB9-207" target="D8-KQS5gUGrc6W0yMjmw-116" edge="1">
                    <mxGeometry relative="1" as="geometry">
                        <mxPoint x="-308" y="1106.2666666666669" as="sourcePoint"/>
                        <Array as="points">
                            <mxPoint x="-260" y="1126"/>
                            <mxPoint x="-260" y="1126"/>
                        </Array>
                    </mxGeometry>
                </mxCell>
                <mxCell id="Xno3NGJmczsKOu3R2XB9-153" style="edgeStyle=orthogonalEdgeStyle;orthogonalLoop=1;jettySize=auto;html=1;fontFamily=Lucida Console;fontSize=15;fontColor=default;endArrow=classic;fillColor=none;strokeColor=#4D4D4D;gradientColor=none;rounded=0;sketch=0;strokeWidth=3;" parent="1" source="D8-KQS5gUGrc6W0yMjmw-119" target="D8-KQS5gUGrc6W0yMjmw-126" edge="1">
                    <mxGeometry relative="1" as="geometry"/>
                </mxCell>
                <mxCell id="D8-KQS5gUGrc6W0yMjmw-119" value="detect_duplicates" style="rounded=0;whiteSpace=wrap;html=1;glass=0;fontFamily=Lucida Console;fontSize=16;align=center;strokeColor=#F2FF15;fillColor=#F2FF15;shadow=0;sketch=1;fontStyle=1" parent="1" vertex="1">
                    <mxGeometry x="-171.25" y="973.75" width="261" height="30" as="geometry"/>
                </mxCell>
                <mxCell id="D8-KQS5gUGrc6W0yMjmw-171" value="&amp;nbsp; shapefiles" style="strokeWidth=2;html=1;shape=mxgraph.flowchart.multi-document;whiteSpace=wrap;rounded=0;shadow=1;glass=0;sketch=0;fillColor=#ffffff;fontFamily=Lucida Console;fontSize=15;align=left;strokeColor=#7F7F7F;" parent="1" vertex="1">
                    <mxGeometry x="-127" y="1081" width="170" height="60" as="geometry"/>
                </mxCell>
                <mxCell id="D8-KQS5gUGrc6W0yMjmw-222" value="" style="rounded=1;whiteSpace=wrap;html=1;shadow=0;glass=0;sketch=0;strokeWidth=1;fontFamily=Lucida Console;fontSize=16;align=left;strokeColor=#7F7F7F;fontColor=#ffffff;fillColor=#8C5C99;" parent="1" vertex="1">
                    <mxGeometry x="-360" y="1303" width="720" height="1013" as="geometry"/>
                </mxCell>
                <mxCell id="D8-KQS5gUGrc6W0yMjmw-224" value="" style="rounded=1;whiteSpace=wrap;html=1;absoluteArcSize=1;arcSize=14;strokeWidth=3;shadow=1;glass=0;sketch=0;fillColor=#ffffff;fontFamily=Lucida Console;fontSize=15;align=left;strokeColor=#7F7F7F;" parent="1" vertex="1">
                    <mxGeometry x="-220" y="2118.5" width="550" height="80" as="geometry"/>
                </mxCell>
                <mxCell id="Xno3NGJmczsKOu3R2XB9-143" style="edgeStyle=orthogonalEdgeStyle;orthogonalLoop=1;jettySize=auto;html=1;fontFamily=Lucida Console;fontSize=15;fontColor=default;endArrow=classic;rounded=0;strokeColor=#4D4D4D;sketch=0;strokeWidth=5;" parent="1" source="D8-KQS5gUGrc6W0yMjmw-225" target="ljsbQq2XFhJ2r-xU6_tJ-11" edge="1">
                    <mxGeometry relative="1" as="geometry">
                        <Array as="points">
                            <mxPoint x="73" y="2078.5"/>
                            <mxPoint x="-476" y="2078.5"/>
                        </Array>
                    </mxGeometry>
                </mxCell>
                <mxCell id="D8-KQS5gUGrc6W0yMjmw-225" value="" style="rounded=1;whiteSpace=wrap;html=1;absoluteArcSize=1;arcSize=14;strokeWidth=3;shadow=1;glass=0;sketch=0;fillColor=#ffffff;fontFamily=Lucida Console;fontSize=15;align=left;strokeColor=#7F7F7F;" parent="1" vertex="1">
                    <mxGeometry x="-220" y="1696.25" width="550" height="333" as="geometry"/>
                </mxCell>
                <mxCell id="Xno3NGJmczsKOu3R2XB9-142" style="edgeStyle=orthogonalEdgeStyle;orthogonalLoop=1;jettySize=auto;html=1;fontFamily=Lucida Console;fontSize=15;fontColor=default;endArrow=classic;rounded=0;strokeColor=#4D4D4D;sketch=0;strokeWidth=5;" parent="1" source="D8-KQS5gUGrc6W0yMjmw-226" target="D8-KQS5gUGrc6W0yMjmw-225" edge="1">
                    <mxGeometry relative="1" as="geometry">
                        <Array as="points">
                            <mxPoint x="210" y="1678.5"/>
                            <mxPoint x="210" y="1678.5"/>
                        </Array>
                    </mxGeometry>
                </mxCell>
                <mxCell id="D8-KQS5gUGrc6W0yMjmw-226" value="" style="rounded=1;whiteSpace=wrap;html=1;absoluteArcSize=1;arcSize=14;strokeWidth=3;shadow=1;glass=0;sketch=0;fillColor=#ffffff;fontFamily=Lucida Console;fontSize=15;align=left;strokeColor=#7F7F7F;" parent="1" vertex="1">
                    <mxGeometry x="-220" y="1353" width="550" height="265.5" as="geometry"/>
                </mxCell>
                <mxCell id="D8-KQS5gUGrc6W0yMjmw-227" style="edgeStyle=orthogonalEdgeStyle;rounded=0;sketch=0;orthogonalLoop=1;jettySize=auto;html=1;exitX=0.5;exitY=1;exitDx=0;exitDy=0;entryX=0.5;entryY=0;entryDx=0;entryDy=0;fontFamily=Lucida Console;fontSize=20;strokeColor=#4D4D4D;strokeWidth=5;" parent="1" source="D8-KQS5gUGrc6W0yMjmw-228" target="D8-KQS5gUGrc6W0yMjmw-331" edge="1">
                    <mxGeometry relative="1" as="geometry"/>
                </mxCell>
                <mxCell id="D8-KQS5gUGrc6W0yMjmw-228" value="CHRONOLOGIES" style="rounded=1;whiteSpace=wrap;html=1;fontFamily=Lucida Console;fontSize=21;sketch=0;fillColor=#8C5C99;strokeColor=#7F7F7F;fontColor=#ffffff;strokeWidth=3;fontStyle=1" parent="1" vertex="1">
                    <mxGeometry x="-770" y="1310" width="160" height="80" as="geometry"/>
                </mxCell>
                <mxCell id="Xno3NGJmczsKOu3R2XB9-36" style="edgeStyle=orthogonalEdgeStyle;shape=connector;rounded=0;orthogonalLoop=1;jettySize=auto;html=1;labelBackgroundColor=default;fontFamily=Lucida Console;fontSize=15;fontColor=#4D4D4D;endArrow=classic;strokeColor=#4D4D4D;strokeWidth=5;" parent="1" source="D8-KQS5gUGrc6W0yMjmw-331" target="D8-KQS5gUGrc6W0yMjmw-336" edge="1">
                    <mxGeometry relative="1" as="geometry"/>
                </mxCell>
                <mxCell id="Xno3NGJmczsKOu3R2XB9-165" style="edgeStyle=orthogonalEdgeStyle;orthogonalLoop=1;jettySize=auto;html=1;fontFamily=Lucida Console;fontSize=15;fontColor=default;endArrow=classic;rounded=0;strokeColor=#4D4D4D;sketch=0;strokeWidth=5;" parent="1" source="D8-KQS5gUGrc6W0yMjmw-331" target="Xno3NGJmczsKOu3R2XB9-146" edge="1">
                    <mxGeometry relative="1" as="geometry">
                        <Array as="points">
                            <mxPoint x="-700" y="2360"/>
                        </Array>
                    </mxGeometry>
                </mxCell>
                <mxCell id="D8-KQS5gUGrc6W0yMjmw-331" value="&lt;div style=&quot;&quot;&gt;&lt;span style=&quot;background-color: initial;&quot;&gt;recalbrate&lt;/span&gt;&lt;/div&gt;&lt;div style=&quot;&quot;&gt;&lt;span style=&quot;background-color: initial;&quot;&gt;AD moldels ?&lt;/span&gt;&lt;/div&gt;" style="html=1;whiteSpace=wrap;container=1;recursiveResize=0;collapsible=0;rounded=1;shadow=0;glass=0;sketch=0;strokeWidth=3;fontFamily=Lucida Console;fontSize=16;align=center;strokeColor=#7F7F7F;fillColor=#8C5C99;fontColor=#FFFFFF;" parent="1" vertex="1">
                    <mxGeometry x="-770" y="1428" width="160" height="70" as="geometry"/>
                </mxCell>
                <mxCell id="D8-KQS5gUGrc6W0yMjmw-332" value="" style="triangle;html=1;whiteSpace=wrap;fontFamily=Lucida Console;" parent="D8-KQS5gUGrc6W0yMjmw-331" vertex="1">
                    <mxGeometry x="5" y="20" width="20" height="30" as="geometry"/>
                </mxCell>
                <mxCell id="D8-KQS5gUGrc6W0yMjmw-335" value="false" style="whiteSpace=wrap;html=1;shape=partialRectangle;top=0;left=0;bottom=1;right=0;points=[[0,1],[1,1]];fillColor=none;align=center;verticalAlign=bottom;routingCenterY=0.5;snapToPoint=1;recursiveResize=0;autosize=1;treeFolding=1;treeMoving=1;newEdgeStyle={&quot;edgeStyle&quot;:&quot;entityRelationEdgeStyle&quot;,&quot;startArrow&quot;:&quot;none&quot;,&quot;endArrow&quot;:&quot;none&quot;,&quot;segment&quot;:10,&quot;curved&quot;:1};rounded=1;shadow=0;glass=0;sketch=0;strokeWidth=3;fontFamily=Lucida Console;fontSize=20;strokeColor=#4D4D4D;" parent="1" vertex="1">
                    <mxGeometry x="-700" y="1548.5" width="90" height="30" as="geometry"/>
                </mxCell>
                <mxCell id="ljsbQq2XFhJ2r-xU6_tJ-4" style="edgeStyle=orthogonalEdgeStyle;rounded=0;orthogonalLoop=1;jettySize=auto;html=1;exitX=0.5;exitY=1;exitDx=0;exitDy=0;fontFamily=Lucida Console;fontSize=17;" parent="1" source="D8-KQS5gUGrc6W0yMjmw-226" target="D8-KQS5gUGrc6W0yMjmw-226" edge="1">
                    <mxGeometry relative="1" as="geometry"/>
                </mxCell>
                <mxCell id="Xno3NGJmczsKOu3R2XB9-88" style="edgeStyle=orthogonalEdgeStyle;orthogonalLoop=1;jettySize=auto;html=1;entryX=0;entryY=0.5;entryDx=0;entryDy=0;fontFamily=Lucida Console;fontSize=15;fontColor=default;endArrow=classic;rounded=0;strokeColor=#4D4D4D;strokeWidth=5;" parent="1" source="ljsbQq2XFhJ2r-xU6_tJ-11" edge="1">
                    <mxGeometry relative="1" as="geometry">
                        <mxPoint x="-197" y="2160.5" as="targetPoint"/>
                        <Array as="points">
                            <mxPoint x="-240" y="2160.5"/>
                            <mxPoint x="-240" y="2160.5"/>
                        </Array>
                    </mxGeometry>
                </mxCell>
                <mxCell id="ljsbQq2XFhJ2r-xU6_tJ-11" value="&amp;nbsp; predict ages 'de novo' ?" style="html=1;whiteSpace=wrap;container=1;recursiveResize=0;collapsible=0;rounded=1;shadow=0;glass=0;sketch=0;strokeWidth=3;fontFamily=Lucida Console;fontSize=16;align=center;strokeColor=#4D4D4D;fillColor=#8C5C99;" parent="1" vertex="1">
                    <mxGeometry x="-559" y="2134" width="170" height="70" as="geometry"/>
                </mxCell>
                <mxCell id="ljsbQq2XFhJ2r-xU6_tJ-12" value="" style="triangle;html=1;whiteSpace=wrap;fontFamily=Lucida Console;" parent="ljsbQq2XFhJ2r-xU6_tJ-11" vertex="1">
                    <mxGeometry x="12" y="20" width="20" height="30" as="geometry"/>
                </mxCell>
                <mxCell id="ljsbQq2XFhJ2r-xU6_tJ-22" value="&amp;nbsp;age-depth models" style="strokeWidth=2;html=1;shape=mxgraph.flowchart.multi-document;whiteSpace=wrap;rounded=0;shadow=1;glass=0;sketch=0;fillColor=#ffffff;fontFamily=Lucida Console;fontSize=15;align=left;strokeColor=#7F7F7F;" parent="1" vertex="1">
                    <mxGeometry x="-147.75" y="2133.5" width="170" height="60" as="geometry"/>
                </mxCell>
                <mxCell id="Xno3NGJmczsKOu3R2XB9-101" style="edgeStyle=orthogonalEdgeStyle;orthogonalLoop=1;jettySize=auto;html=1;entryX=0;entryY=0.25;entryDx=0;entryDy=0;fontFamily=Lucida Console;fontSize=15;fontColor=default;endArrow=classic;rounded=0;strokeColor=#4D4D4D;strokeWidth=5;" parent="1" source="D8-KQS5gUGrc6W0yMjmw-336" target="D8-KQS5gUGrc6W0yMjmw-226" edge="1">
                    <mxGeometry relative="1" as="geometry"/>
                </mxCell>
                <mxCell id="D8-KQS5gUGrc6W0yMjmw-336" value="&lt;div style=&quot;&quot;&gt;&lt;span style=&quot;background-color: initial;&quot;&gt;recalbrate&lt;/span&gt;&lt;/div&gt;&lt;div style=&quot;&quot;&gt;&lt;span style=&quot;background-color: initial;&quot;&gt;'de novo'?&lt;/span&gt;&lt;/div&gt;" style="html=1;whiteSpace=wrap;container=1;recursiveResize=0;collapsible=0;rounded=1;shadow=0;glass=0;sketch=0;strokeWidth=1;fontFamily=Lucida Console;fontSize=16;align=center;strokeColor=#7F7F7F;fillColor=#8C5C99;fontColor=#FFFFFF;" parent="1" vertex="1">
                    <mxGeometry x="-554" y="1428" width="160" height="70" as="geometry"/>
                </mxCell>
                <mxCell id="D8-KQS5gUGrc6W0yMjmw-337" value="" style="triangle;html=1;whiteSpace=wrap;fontFamily=Lucida Console;" parent="D8-KQS5gUGrc6W0yMjmw-336" vertex="1">
                    <mxGeometry x="5" y="21" width="20" height="30" as="geometry"/>
                </mxCell>
                <mxCell id="ljsbQq2XFhJ2r-xU6_tJ-37" value="&lt;b style=&quot;font-size: 60px;&quot;&gt;&lt;font style=&quot;font-size: 60px;&quot;&gt;I&lt;/font&gt;&lt;/b&gt;" style="text;html=1;strokeColor=none;fillColor=none;align=center;verticalAlign=middle;whiteSpace=wrap;rounded=0;sketch=0;fontFamily=Lucida Console;fontSize=60;fontColor=#FFFFFF;" parent="1" vertex="1">
                    <mxGeometry x="-369" y="350.75" width="60" height="150" as="geometry"/>
                </mxCell>
                <mxCell id="ljsbQq2XFhJ2r-xU6_tJ-38" value="&lt;b style=&quot;font-size: 60px&quot;&gt;&lt;font style=&quot;font-size: 60px&quot;&gt;IV&lt;/font&gt;&lt;/b&gt;" style="text;html=1;strokeColor=none;fillColor=none;align=center;verticalAlign=middle;whiteSpace=wrap;rounded=0;sketch=0;fontFamily=Lucida Console;fontSize=60;fontColor=#FFFFFF;" parent="1" vertex="1">
                    <mxGeometry x="-320" y="1710.25" width="60" height="150" as="geometry"/>
                </mxCell>
                <mxCell id="Xno3NGJmczsKOu3R2XB9-197" style="edgeStyle=orthogonalEdgeStyle;orthogonalLoop=1;jettySize=auto;html=1;entryX=0.93;entryY=0.5;entryDx=0;entryDy=0;entryPerimeter=0;fontFamily=Lucida Console;fontSize=15;fontColor=default;endArrow=classic;rounded=0;strokeColor=#4D4D4D;sketch=0;strokeWidth=5;" parent="1" source="ljsbQq2XFhJ2r-xU6_tJ-43" target="Xno3NGJmczsKOu3R2XB9-155" edge="1">
                    <mxGeometry relative="1" as="geometry">
                        <Array as="points">
                            <mxPoint x="1268" y="355"/>
                        </Array>
                    </mxGeometry>
                </mxCell>
                <mxCell id="ljsbQq2XFhJ2r-xU6_tJ-43" value="" style="rounded=1;whiteSpace=wrap;html=1;absoluteArcSize=1;arcSize=14;strokeWidth=3;shadow=1;glass=0;sketch=0;fillColor=#ffffff;fontFamily=Lucida Console;fontSize=15;align=left;strokeColor=#7F7F7F;" parent="1" vertex="1">
                    <mxGeometry x="984.5" y="169" width="560" height="130" as="geometry"/>
                </mxCell>
                <mxCell id="ljsbQq2XFhJ2r-xU6_tJ-149" value="&amp;nbsp; shapefiles" style="strokeWidth=2;html=1;shape=mxgraph.flowchart.multi-document;whiteSpace=wrap;rounded=0;shadow=1;glass=0;sketch=0;fillColor=#ffffff;fontFamily=Lucida Console;fontSize=15;align=left;strokeColor=#7F7F7F;" parent="1" vertex="1">
                    <mxGeometry x="1068.5" y="199" width="170" height="60" as="geometry"/>
                </mxCell>
                <mxCell id="Xno3NGJmczsKOu3R2XB9-176" style="edgeStyle=orthogonalEdgeStyle;orthogonalLoop=1;jettySize=auto;html=1;fontFamily=Lucida Console;fontSize=15;fontColor=default;endArrow=classic;rounded=0;strokeColor=#4D4D4D;sketch=0;strokeWidth=5;entryX=0;entryY=0.25;entryDx=0;entryDy=0;" parent="1" source="ljsbQq2XFhJ2r-xU6_tJ-159" target="ljsbQq2XFhJ2r-xU6_tJ-172" edge="1">
                    <mxGeometry relative="1" as="geometry">
                        <Array as="points">
                            <mxPoint x="760" y="679"/>
                            <mxPoint x="760" y="781"/>
                        </Array>
                    </mxGeometry>
                </mxCell>
                <mxCell id="ljsbQq2XFhJ2r-xU6_tJ-159" value="FILTERING" style="rounded=1;whiteSpace=wrap;html=1;fontFamily=Lucida Console;fontSize=21;sketch=0;fillColor=#FF685F;strokeColor=#7F7F7F;fontColor=#ffffff;fontStyle=1;strokeWidth=3;" parent="1" vertex="1">
                    <mxGeometry x="548.5" y="638.75" width="160" height="80" as="geometry"/>
                </mxCell>
                <mxCell id="ljsbQq2XFhJ2r-xU6_tJ-161" style="edgeStyle=orthogonalEdgeStyle;rounded=0;sketch=0;orthogonalLoop=1;jettySize=auto;html=1;exitX=0.5;exitY=1;exitDx=0;exitDy=0;entryX=0.5;entryY=0;entryDx=0;entryDy=0;fontFamily=Lucida Console;fontSize=15;" parent="1" edge="1">
                    <mxGeometry relative="1" as="geometry">
                        <mxPoint x="1688" y="1421" as="sourcePoint"/>
                    </mxGeometry>
                </mxCell>
                <mxCell id="ljsbQq2XFhJ2r-xU6_tJ-167" style="edgeStyle=orthogonalEdgeStyle;rounded=0;orthogonalLoop=1;jettySize=auto;html=1;exitX=0;exitY=0.5;exitDx=0;exitDy=0;exitPerimeter=0;entryX=0.5;entryY=0;entryDx=0;entryDy=0;fontFamily=Lucida Console;fontSize=100;" parent="1" edge="1">
                    <mxGeometry relative="1" as="geometry">
                        <mxPoint x="1688" y="1391" as="targetPoint"/>
                    </mxGeometry>
                </mxCell>
                <mxCell id="ljsbQq2XFhJ2r-xU6_tJ-170" value="&lt;b style=&quot;font-size: 60px&quot;&gt;&lt;font style=&quot;font-size: 60px&quot;&gt;VI&lt;/font&gt;&lt;/b&gt;" style="text;html=1;strokeColor=none;fillColor=none;align=center;verticalAlign=middle;whiteSpace=wrap;rounded=0;sketch=0;fontFamily=Lucida Console;fontSize=60;fontColor=#FFFFFF;" parent="1" vertex="1">
                    <mxGeometry x="890" y="824.5" width="60" height="150" as="geometry"/>
                </mxCell>
                <mxCell id="Xno3NGJmczsKOu3R2XB9-175" style="edgeStyle=orthogonalEdgeStyle;orthogonalLoop=1;jettySize=auto;html=1;entryX=0;entryY=0.75;entryDx=0;entryDy=0;fontFamily=Lucida Console;fontSize=15;fontColor=default;endArrow=classic;rounded=0;strokeColor=#4D4D4D;sketch=0;strokeWidth=5;" parent="1" source="ljsbQq2XFhJ2r-xU6_tJ-36" target="ljsbQq2XFhJ2r-xU6_tJ-43" edge="1">
                    <mxGeometry relative="1" as="geometry">
                        <Array as="points">
                            <mxPoint x="628" y="267"/>
                        </Array>
                    </mxGeometry>
                </mxCell>
                <mxCell id="ljsbQq2XFhJ2r-xU6_tJ-36" value="HARMONISATION" style="rounded=1;whiteSpace=wrap;html=1;fontFamily=Lucida Console;fontSize=21;sketch=0;fillColor=#D3588B;strokeColor=#7F7F7F;fontColor=#FFFFFF;fontStyle=1;strokeWidth=3;" parent="1" vertex="1">
                    <mxGeometry x="541" y="138.75" width="175" height="80" as="geometry"/>
                </mxCell>
                <mxCell id="ljsbQq2XFhJ2r-xU6_tJ-174" value="filter_by_pollen_sum" style="rounded=0;whiteSpace=wrap;html=1;glass=0;fontFamily=Lucida Console;fontSize=16;align=center;strokeColor=#F2FF15;fillColor=#F2FF15;shadow=0;sketch=1;fontStyle=1;verticalAlign=middle;gradientColor=none;" parent="1" vertex="1">
                    <mxGeometry x="1066" y="668.75" width="258.5" height="30" as="geometry"/>
                </mxCell>
                <mxCell id="ljsbQq2XFhJ2r-xU6_tJ-177" value="min_n_grains" style="rounded=0;whiteSpace=wrap;html=1;glass=0;fontFamily=Lucida Console;fontSize=16;align=center;strokeColor=#F2FF15;fillColor=#F2FF15;shadow=0;sketch=1;fontStyle=1" parent="1" vertex="1">
                    <mxGeometry x="1064.5" y="709.75" width="259" height="30" as="geometry"/>
                </mxCell>
                <mxCell id="ljsbQq2XFhJ2r-xU6_tJ-179" value="target_n_grains" style="rounded=0;whiteSpace=wrap;html=1;glass=0;fontFamily=Lucida Console;fontSize=16;align=center;strokeColor=#F2FF15;fillColor=#F2FF15;shadow=0;sketch=1;fontStyle=1" parent="1" vertex="1">
                    <mxGeometry x="1064.5" y="751.75" width="260" height="30" as="geometry"/>
                </mxCell>
                <mxCell id="ljsbQq2XFhJ2r-xU6_tJ-181" value="percentage_samples" style="rounded=0;whiteSpace=wrap;html=1;glass=0;fontFamily=Lucida Console;fontSize=16;align=center;strokeColor=#F2FF15;fillColor=#F2FF15;shadow=0;sketch=1;fontStyle=1" parent="1" vertex="1">
                    <mxGeometry x="1064.5" y="792.75" width="260" height="30" as="geometry"/>
                </mxCell>
                <mxCell id="ljsbQq2XFhJ2r-xU6_tJ-183" value="filter_by_age_limit" style="rounded=0;whiteSpace=wrap;html=1;glass=0;fontFamily=Lucida Console;fontSize=16;align=center;strokeColor=#F2FF15;fillColor=#F2FF15;shadow=0;sketch=1;fontStyle=1" parent="1" vertex="1">
                    <mxGeometry x="1064.5" y="833.75" width="260" height="30" as="geometry"/>
                </mxCell>
                <mxCell id="ljsbQq2XFhJ2r-xU6_tJ-184" value="filter_by_extrapolation" style="rounded=0;whiteSpace=wrap;html=1;glass=0;fontFamily=Lucida Console;fontSize=16;align=center;strokeColor=#F2FF15;fillColor=#F2FF15;shadow=0;sketch=1;fontStyle=1" parent="1" vertex="1">
                    <mxGeometry x="1064.5" y="874.75" width="260" height="30" as="geometry"/>
                </mxCell>
                <mxCell id="ljsbQq2XFhJ2r-xU6_tJ-241" value="" style="strokeWidth=2;html=1;shape=mxgraph.flowchart.database;whiteSpace=wrap;sketch=1;fontFamily=Lucida Console;fontSize=17;fillColor=#7F7F7F;fontColor=#ffffff;strokeColor=#000000;" parent="1" vertex="1">
                    <mxGeometry x="1084.5" y="1570" width="166" height="80" as="geometry"/>
                </mxCell>
                <mxCell id="ljsbQq2XFhJ2r-xU6_tJ-289" value="FOSSILPOL WORKFLOW - config overview" style="text;html=1;strokeColor=none;fillColor=none;align=center;verticalAlign=middle;whiteSpace=wrap;rounded=0;sketch=1;fontFamily=Lucida Console;fontSize=50;fontStyle=1" parent="1" vertex="1">
                    <mxGeometry x="-123.5" y="20" width="1208" height="30" as="geometry"/>
                </mxCell>
                <mxCell id="ljsbQq2XFhJ2r-xU6_tJ-294" value="3" style="text;html=1;strokeColor=none;fillColor=none;align=center;verticalAlign=middle;whiteSpace=wrap;rounded=0;sketch=1;fontFamily=Lucida Console;fontSize=20;fontColor=#4D4D4D;" parent="1" vertex="1">
                    <mxGeometry x="-220" y="502.5" width="60" height="30" as="geometry"/>
                </mxCell>
                <mxCell id="ljsbQq2XFhJ2r-xU6_tJ-296" value="4" style="text;html=1;strokeColor=none;fillColor=none;align=center;verticalAlign=middle;whiteSpace=wrap;rounded=0;sketch=1;fontFamily=Lucida Console;fontSize=20;fontColor=#4D4D4D;" parent="1" vertex="1">
                    <mxGeometry x="-220" y="595.25" width="60" height="30" as="geometry"/>
                </mxCell>
                <mxCell id="ljsbQq2XFhJ2r-xU6_tJ-298" value="5" style="text;html=1;strokeColor=none;fillColor=none;align=center;verticalAlign=middle;whiteSpace=wrap;rounded=0;sketch=1;fontFamily=Lucida Console;fontSize=20;fontColor=#4D4D4D;" parent="1" vertex="1">
                    <mxGeometry x="-220" y="742.87" width="60" height="30" as="geometry"/>
                </mxCell>
                <mxCell id="ljsbQq2XFhJ2r-xU6_tJ-299" value="6" style="text;html=1;strokeColor=none;fillColor=none;align=center;verticalAlign=middle;whiteSpace=wrap;rounded=0;sketch=1;fontFamily=Lucida Console;fontSize=20;fontColor=#4D4D4D;" parent="1" vertex="1">
                    <mxGeometry x="-220" y="784.25" width="60" height="30" as="geometry"/>
                </mxCell>
                <mxCell id="ljsbQq2XFhJ2r-xU6_tJ-301" value="7" style="text;html=1;strokeColor=none;fillColor=none;align=center;verticalAlign=middle;whiteSpace=wrap;rounded=0;sketch=1;fontFamily=Lucida Console;fontSize=20;fontColor=#4D4D4D;" parent="1" vertex="1">
                    <mxGeometry x="-220" y="971.75" width="60" height="30" as="geometry"/>
                </mxCell>
                <mxCell id="ljsbQq2XFhJ2r-xU6_tJ-322" value="20" style="text;html=1;strokeColor=none;fillColor=none;align=center;verticalAlign=middle;whiteSpace=wrap;rounded=0;sketch=1;fontFamily=Lucida Console;fontSize=20;fontColor=#4D4D4D;" parent="1" vertex="1">
                    <mxGeometry x="1004.5" y="668.75" width="60" height="30" as="geometry"/>
                </mxCell>
                <mxCell id="ljsbQq2XFhJ2r-xU6_tJ-323" value="21" style="text;html=1;strokeColor=none;fillColor=none;align=center;verticalAlign=middle;whiteSpace=wrap;rounded=0;sketch=1;fontFamily=Lucida Console;fontSize=20;fontColor=#4D4D4D;" parent="1" vertex="1">
                    <mxGeometry x="1003.5" y="709.75" width="60" height="30" as="geometry"/>
                </mxCell>
                <mxCell id="ljsbQq2XFhJ2r-xU6_tJ-324" value="23" style="text;html=1;strokeColor=none;fillColor=none;align=center;verticalAlign=middle;whiteSpace=wrap;rounded=0;sketch=1;fontFamily=Lucida Console;fontSize=20;fontColor=#4D4D4D;" parent="1" vertex="1">
                    <mxGeometry x="1003.5" y="794.5" width="60" height="30" as="geometry"/>
                </mxCell>
                <mxCell id="ljsbQq2XFhJ2r-xU6_tJ-325" value="24" style="text;html=1;strokeColor=none;fillColor=none;align=center;verticalAlign=middle;whiteSpace=wrap;rounded=0;sketch=1;fontFamily=Lucida Console;fontSize=20;fontColor=#4D4D4D;" parent="1" vertex="1">
                    <mxGeometry x="1003.5" y="833.75" width="60" height="30" as="geometry"/>
                </mxCell>
                <mxCell id="ljsbQq2XFhJ2r-xU6_tJ-326" value="22" style="text;html=1;strokeColor=none;fillColor=none;align=center;verticalAlign=middle;whiteSpace=wrap;rounded=0;sketch=1;fontFamily=Lucida Console;fontSize=20;fontColor=#4D4D4D;" parent="1" vertex="1">
                    <mxGeometry x="1003.5" y="754" width="60" height="25.5" as="geometry"/>
                </mxCell>
                <mxCell id="ljsbQq2XFhJ2r-xU6_tJ-329" value="25" style="text;html=1;strokeColor=none;fillColor=none;align=center;verticalAlign=middle;whiteSpace=wrap;rounded=0;sketch=1;fontFamily=Lucida Console;fontSize=20;fontColor=#4D4D4D;" parent="1" vertex="1">
                    <mxGeometry x="1004" y="874.75" width="60" height="30" as="geometry"/>
                </mxCell>
                <mxCell id="vCBsO0bPYM04PooFfdqD-1" value="" style="strokeWidth=3;html=1;shape=mxgraph.flowchart.stored_data;whiteSpace=wrap;rounded=0;glass=1;fillColor=#FF2215;fontFamily=Lucida Console;fontSize=15;align=left;sketch=1;strokeColor=#4D4D4D;" parent="1" vertex="1">
                    <mxGeometry x="1143" y="2229.5" width="100" height="30" as="geometry"/>
                </mxCell>
                <mxCell id="vCBsO0bPYM04PooFfdqD-3" value="" style="shape=table;html=1;whiteSpace=wrap;startSize=20;container=1;collapsible=0;childLayout=tableLayout;fontStyle=1;align=center;rounded=0;glass=1;fontFamily=Lucida Console;fontSize=15;sketch=1;strokeColor=#7F7F7F;" parent="1" vertex="1">
                    <mxGeometry x="1103" y="2044.5" width="180" height="88.5" as="geometry"/>
                </mxCell>
                <mxCell id="vCBsO0bPYM04PooFfdqD-4" value="" style="shape=partialRectangle;html=1;whiteSpace=wrap;collapsible=0;dropTarget=0;pointerEvents=0;fillColor=none;top=0;left=0;bottom=0;right=0;points=[[0,0.5],[1,0.5]];portConstraint=eastwest;fontFamily=Lucida Console;" parent="vCBsO0bPYM04PooFfdqD-3" vertex="1">
                    <mxGeometry y="20" width="180" height="23" as="geometry"/>
                </mxCell>
                <mxCell id="vCBsO0bPYM04PooFfdqD-5" value="" style="shape=partialRectangle;html=1;whiteSpace=wrap;connectable=0;fillColor=none;top=0;left=0;bottom=0;right=0;overflow=hidden;fontFamily=Lucida Console;" parent="vCBsO0bPYM04PooFfdqD-4" vertex="1">
                    <mxGeometry width="60" height="23" as="geometry">
                        <mxRectangle width="60" height="23" as="alternateBounds"/>
                    </mxGeometry>
                </mxCell>
                <mxCell id="vCBsO0bPYM04PooFfdqD-6" value="" style="shape=partialRectangle;html=1;whiteSpace=wrap;connectable=0;fillColor=none;top=0;left=0;bottom=0;right=0;overflow=hidden;fontFamily=Lucida Console;" parent="vCBsO0bPYM04PooFfdqD-4" vertex="1">
                    <mxGeometry x="60" width="60" height="23" as="geometry">
                        <mxRectangle width="60" height="23" as="alternateBounds"/>
                    </mxGeometry>
                </mxCell>
                <mxCell id="vCBsO0bPYM04PooFfdqD-7" value="" style="shape=partialRectangle;html=1;whiteSpace=wrap;connectable=0;fillColor=none;top=0;left=0;bottom=0;right=0;overflow=hidden;fontFamily=Lucida Console;" parent="vCBsO0bPYM04PooFfdqD-4" vertex="1">
                    <mxGeometry x="120" width="60" height="23" as="geometry">
                        <mxRectangle width="60" height="23" as="alternateBounds"/>
                    </mxGeometry>
                </mxCell>
                <mxCell id="vCBsO0bPYM04PooFfdqD-8" value="" style="shape=partialRectangle;html=1;whiteSpace=wrap;collapsible=0;dropTarget=0;pointerEvents=0;fillColor=none;top=0;left=0;bottom=0;right=0;points=[[0,0.5],[1,0.5]];portConstraint=eastwest;fontFamily=Lucida Console;" parent="vCBsO0bPYM04PooFfdqD-3" vertex="1">
                    <mxGeometry y="43" width="180" height="23" as="geometry"/>
                </mxCell>
                <mxCell id="vCBsO0bPYM04PooFfdqD-9" value="" style="shape=partialRectangle;html=1;whiteSpace=wrap;connectable=0;fillColor=none;top=0;left=0;bottom=0;right=0;overflow=hidden;fontFamily=Lucida Console;" parent="vCBsO0bPYM04PooFfdqD-8" vertex="1">
                    <mxGeometry width="60" height="23" as="geometry">
                        <mxRectangle width="60" height="23" as="alternateBounds"/>
                    </mxGeometry>
                </mxCell>
                <mxCell id="vCBsO0bPYM04PooFfdqD-10" value="" style="shape=partialRectangle;html=1;whiteSpace=wrap;connectable=0;fillColor=none;top=0;left=0;bottom=0;right=0;overflow=hidden;fontFamily=Lucida Console;" parent="vCBsO0bPYM04PooFfdqD-8" vertex="1">
                    <mxGeometry x="60" width="60" height="23" as="geometry">
                        <mxRectangle width="60" height="23" as="alternateBounds"/>
                    </mxGeometry>
                </mxCell>
                <mxCell id="vCBsO0bPYM04PooFfdqD-11" value="" style="shape=partialRectangle;html=1;whiteSpace=wrap;connectable=0;fillColor=none;top=0;left=0;bottom=0;right=0;overflow=hidden;fontFamily=Lucida Console;" parent="vCBsO0bPYM04PooFfdqD-8" vertex="1">
                    <mxGeometry x="120" width="60" height="23" as="geometry">
                        <mxRectangle width="60" height="23" as="alternateBounds"/>
                    </mxGeometry>
                </mxCell>
                <mxCell id="vCBsO0bPYM04PooFfdqD-12" value="" style="shape=partialRectangle;html=1;whiteSpace=wrap;collapsible=0;dropTarget=0;pointerEvents=0;fillColor=none;top=0;left=0;bottom=0;right=0;points=[[0,0.5],[1,0.5]];portConstraint=eastwest;fontFamily=Lucida Console;" parent="vCBsO0bPYM04PooFfdqD-3" vertex="1">
                    <mxGeometry y="66" width="180" height="22" as="geometry"/>
                </mxCell>
                <mxCell id="vCBsO0bPYM04PooFfdqD-13" value="" style="shape=partialRectangle;html=1;whiteSpace=wrap;connectable=0;fillColor=none;top=0;left=0;bottom=0;right=0;overflow=hidden;fontFamily=Lucida Console;" parent="vCBsO0bPYM04PooFfdqD-12" vertex="1">
                    <mxGeometry width="60" height="22" as="geometry">
                        <mxRectangle width="60" height="22" as="alternateBounds"/>
                    </mxGeometry>
                </mxCell>
                <mxCell id="vCBsO0bPYM04PooFfdqD-14" value="" style="shape=partialRectangle;html=1;whiteSpace=wrap;connectable=0;fillColor=none;top=0;left=0;bottom=0;right=0;overflow=hidden;fontFamily=Lucida Console;" parent="vCBsO0bPYM04PooFfdqD-12" vertex="1">
                    <mxGeometry x="60" width="60" height="22" as="geometry">
                        <mxRectangle width="60" height="22" as="alternateBounds"/>
                    </mxGeometry>
                </mxCell>
                <mxCell id="vCBsO0bPYM04PooFfdqD-15" value="" style="shape=partialRectangle;html=1;whiteSpace=wrap;connectable=0;fillColor=none;top=0;left=0;bottom=0;right=0;overflow=hidden;fontFamily=Lucida Console;" parent="vCBsO0bPYM04PooFfdqD-12" vertex="1">
                    <mxGeometry x="120" width="60" height="22" as="geometry">
                        <mxRectangle width="60" height="22" as="alternateBounds"/>
                    </mxGeometry>
                </mxCell>
                <mxCell id="vCBsO0bPYM04PooFfdqD-16" value="" style="verticalLabelPosition=bottom;verticalAlign=top;html=1;shape=mxgraph.basic.tick;rounded=0;glass=1;fontFamily=Lucida Console;fontSize=15;align=left;fillColor=#00507B;strokeWidth=1;strokeColor=none;" parent="1" vertex="1">
                    <mxGeometry x="1239" y="2053.5" width="40" height="40" as="geometry"/>
                </mxCell>
                <mxCell id="vCBsO0bPYM04PooFfdqD-17" value="" style="verticalLabelPosition=bottom;verticalAlign=top;html=1;shape=mxgraph.basic.tick;rounded=0;glass=1;fontFamily=Lucida Console;fontSize=15;align=left;fillColor=#00507B;strokeWidth=1;strokeColor=none;" parent="1" vertex="1">
                    <mxGeometry x="1240" y="2081.5" width="40" height="52" as="geometry"/>
                </mxCell>
                <mxCell id="vCBsO0bPYM04PooFfdqD-18" value="" style="shape=cylinder3;whiteSpace=wrap;html=1;boundedLbl=1;backgroundOutline=1;size=15;rounded=0;glass=1;fontFamily=Lucida Console;fontSize=21;sketch=1;strokeWidth=3;strokeColor=#7F7F7F;" parent="1" vertex="1">
                    <mxGeometry x="606" y="2214.5" width="120" height="60" as="geometry"/>
                </mxCell>
                <mxCell id="vCBsO0bPYM04PooFfdqD-22" value="dataset compilation" style="text;html=1;strokeColor=none;fillColor=none;align=center;verticalAlign=middle;whiteSpace=wrap;rounded=0;fontSize=30;fontFamily=Lucida Console;" parent="1" vertex="1">
                    <mxGeometry x="728" y="2229.5" width="250" height="30" as="geometry"/>
                </mxCell>
                <mxCell id="vCBsO0bPYM04PooFfdqD-23" value="" style="rounded=0;whiteSpace=wrap;html=1;glass=0;fontFamily=Lucida Console;fontSize=21;align=left;strokeColor=#F2FF15;fillColor=#F2FF15;shadow=0;sketch=1;fontStyle=1" parent="1" vertex="1">
                    <mxGeometry x="600" y="2064.5" width="132" height="30" as="geometry"/>
                </mxCell>
                <mxCell id="vCBsO0bPYM04PooFfdqD-24" value="stop-check &lt;br&gt;table" style="text;html=1;strokeColor=none;fillColor=none;align=center;verticalAlign=middle;whiteSpace=wrap;rounded=0;fontSize=30;fontFamily=Lucida Console;" parent="1" vertex="1">
                    <mxGeometry x="1314" y="2079.5" width="250" height="30" as="geometry"/>
                </mxCell>
                <mxCell id="vCBsO0bPYM04PooFfdqD-25" value="user defined criteria in &lt;br&gt;&lt;i&gt;Config File&lt;/i&gt;" style="text;html=1;strokeColor=none;fillColor=none;align=center;verticalAlign=middle;whiteSpace=wrap;rounded=0;fontSize=30;fontFamily=Lucida Console;" parent="1" vertex="1">
                    <mxGeometry x="744" y="2074.5" width="252" height="30" as="geometry"/>
                </mxCell>
                <mxCell id="vCBsO0bPYM04PooFfdqD-27" value="temporal &lt;br&gt;output files" style="text;html=1;strokeColor=none;fillColor=none;align=center;verticalAlign=middle;whiteSpace=wrap;rounded=0;fontSize=30;fontFamily=Lucida Console;" parent="1" vertex="1">
                    <mxGeometry x="1314" y="2211.5" width="250" height="30" as="geometry"/>
                </mxCell>
                <mxCell id="Rm_6-j9vatiKXGecLMbR-17" value="Harmonisation tables" style="shape=table;html=1;whiteSpace=wrap;startSize=42;container=1;collapsible=0;childLayout=tableLayout;fontStyle=1;align=center;rounded=0;glass=1;fontFamily=Lucida Console;fontSize=15;sketch=1;strokeColor=#7F7F7F;" parent="1" vertex="1">
                    <mxGeometry x="1357.5" y="189" width="180" height="94" as="geometry"/>
                </mxCell>
                <mxCell id="Rm_6-j9vatiKXGecLMbR-18" value="" style="shape=partialRectangle;html=1;whiteSpace=wrap;collapsible=0;dropTarget=0;pointerEvents=0;fillColor=none;top=0;left=0;bottom=0;right=0;points=[[0,0.5],[1,0.5]];portConstraint=eastwest;fontFamily=Lucida Console;" parent="Rm_6-j9vatiKXGecLMbR-17" vertex="1">
                    <mxGeometry y="42" width="180" height="20" as="geometry"/>
                </mxCell>
                <mxCell id="Rm_6-j9vatiKXGecLMbR-19" value="" style="shape=partialRectangle;html=1;whiteSpace=wrap;connectable=0;fillColor=none;top=0;left=0;bottom=0;right=0;overflow=hidden;fontFamily=Lucida Console;" parent="Rm_6-j9vatiKXGecLMbR-18" vertex="1">
                    <mxGeometry width="60" height="20" as="geometry">
                        <mxRectangle width="60" height="20" as="alternateBounds"/>
                    </mxGeometry>
                </mxCell>
                <mxCell id="Rm_6-j9vatiKXGecLMbR-20" value="" style="shape=partialRectangle;html=1;whiteSpace=wrap;connectable=0;fillColor=none;top=0;left=0;bottom=0;right=0;overflow=hidden;fontFamily=Lucida Console;" parent="Rm_6-j9vatiKXGecLMbR-18" vertex="1">
                    <mxGeometry x="60" width="60" height="20" as="geometry">
                        <mxRectangle width="60" height="20" as="alternateBounds"/>
                    </mxGeometry>
                </mxCell>
                <mxCell id="Rm_6-j9vatiKXGecLMbR-21" value="" style="shape=partialRectangle;html=1;whiteSpace=wrap;connectable=0;fillColor=none;top=0;left=0;bottom=0;right=0;overflow=hidden;fontFamily=Lucida Console;" parent="Rm_6-j9vatiKXGecLMbR-18" vertex="1">
                    <mxGeometry x="120" width="60" height="20" as="geometry">
                        <mxRectangle width="60" height="20" as="alternateBounds"/>
                    </mxGeometry>
                </mxCell>
                <mxCell id="Rm_6-j9vatiKXGecLMbR-22" value="" style="shape=partialRectangle;html=1;whiteSpace=wrap;collapsible=0;dropTarget=0;pointerEvents=0;fillColor=none;top=0;left=0;bottom=0;right=0;points=[[0,0.5],[1,0.5]];portConstraint=eastwest;fontFamily=Lucida Console;" parent="Rm_6-j9vatiKXGecLMbR-17" vertex="1">
                    <mxGeometry y="62" width="180" height="16" as="geometry"/>
                </mxCell>
                <mxCell id="Rm_6-j9vatiKXGecLMbR-23" value="" style="shape=partialRectangle;html=1;whiteSpace=wrap;connectable=0;fillColor=none;top=0;left=0;bottom=0;right=0;overflow=hidden;fontFamily=Lucida Console;" parent="Rm_6-j9vatiKXGecLMbR-22" vertex="1">
                    <mxGeometry width="60" height="16" as="geometry">
                        <mxRectangle width="60" height="16" as="alternateBounds"/>
                    </mxGeometry>
                </mxCell>
                <mxCell id="Rm_6-j9vatiKXGecLMbR-24" value="" style="shape=partialRectangle;html=1;whiteSpace=wrap;connectable=0;fillColor=none;top=0;left=0;bottom=0;right=0;overflow=hidden;fontFamily=Lucida Console;" parent="Rm_6-j9vatiKXGecLMbR-22" vertex="1">
                    <mxGeometry x="60" width="60" height="16" as="geometry">
                        <mxRectangle width="60" height="16" as="alternateBounds"/>
                    </mxGeometry>
                </mxCell>
                <mxCell id="Rm_6-j9vatiKXGecLMbR-25" value="" style="shape=partialRectangle;html=1;whiteSpace=wrap;connectable=0;fillColor=none;top=0;left=0;bottom=0;right=0;overflow=hidden;fontFamily=Lucida Console;" parent="Rm_6-j9vatiKXGecLMbR-22" vertex="1">
                    <mxGeometry x="120" width="60" height="16" as="geometry">
                        <mxRectangle width="60" height="16" as="alternateBounds"/>
                    </mxGeometry>
                </mxCell>
                <mxCell id="Rm_6-j9vatiKXGecLMbR-26" value="" style="shape=partialRectangle;html=1;whiteSpace=wrap;collapsible=0;dropTarget=0;pointerEvents=0;fillColor=none;top=0;left=0;bottom=0;right=0;points=[[0,0.5],[1,0.5]];portConstraint=eastwest;fontFamily=Lucida Console;" parent="Rm_6-j9vatiKXGecLMbR-17" vertex="1">
                    <mxGeometry y="78" width="180" height="16" as="geometry"/>
                </mxCell>
                <mxCell id="Rm_6-j9vatiKXGecLMbR-27" value="" style="shape=partialRectangle;html=1;whiteSpace=wrap;connectable=0;fillColor=none;top=0;left=0;bottom=0;right=0;overflow=hidden;fontFamily=Lucida Console;" parent="Rm_6-j9vatiKXGecLMbR-26" vertex="1">
                    <mxGeometry width="60" height="16" as="geometry">
                        <mxRectangle width="60" height="16" as="alternateBounds"/>
                    </mxGeometry>
                </mxCell>
                <mxCell id="Rm_6-j9vatiKXGecLMbR-28" value="" style="shape=partialRectangle;html=1;whiteSpace=wrap;connectable=0;fillColor=none;top=0;left=0;bottom=0;right=0;overflow=hidden;fontFamily=Lucida Console;" parent="Rm_6-j9vatiKXGecLMbR-26" vertex="1">
                    <mxGeometry x="60" width="60" height="16" as="geometry">
                        <mxRectangle width="60" height="16" as="alternateBounds"/>
                    </mxGeometry>
                </mxCell>
                <mxCell id="Rm_6-j9vatiKXGecLMbR-29" value="" style="shape=partialRectangle;html=1;whiteSpace=wrap;connectable=0;fillColor=none;top=0;left=0;bottom=0;right=0;overflow=hidden;fontFamily=Lucida Console;" parent="Rm_6-j9vatiKXGecLMbR-26" vertex="1">
                    <mxGeometry x="120" width="60" height="16" as="geometry">
                        <mxRectangle width="60" height="16" as="alternateBounds"/>
                    </mxGeometry>
                </mxCell>
                <mxCell id="Rm_6-j9vatiKXGecLMbR-30" value="" style="verticalLabelPosition=bottom;verticalAlign=top;html=1;shape=mxgraph.basic.tick;rounded=0;glass=1;fontFamily=Lucida Console;fontSize=15;align=left;fillColor=#00507B;strokeWidth=1;strokeColor=none;" parent="1" vertex="1">
                    <mxGeometry x="1496.5" y="221" width="40" height="40" as="geometry"/>
                </mxCell>
                <mxCell id="Rm_6-j9vatiKXGecLMbR-31" value="" style="verticalLabelPosition=bottom;verticalAlign=top;html=1;shape=mxgraph.basic.tick;rounded=0;glass=1;fontFamily=Lucida Console;fontSize=15;align=left;fillColor=#00507B;strokeWidth=1;strokeColor=none;" parent="1" vertex="1">
                    <mxGeometry x="1497.5" y="239" width="40" height="40" as="geometry"/>
                </mxCell>
                <mxCell id="Rm_6-j9vatiKXGecLMbR-37" value="&lt;b style=&quot;font-size: 60px&quot;&gt;&lt;font style=&quot;font-size: 60px&quot;&gt;II&lt;/font&gt;&lt;/b&gt;" style="text;html=1;strokeColor=none;fillColor=none;align=center;verticalAlign=middle;whiteSpace=wrap;rounded=0;sketch=0;fontFamily=Lucida Console;fontSize=60;fontColor=#FFFFFF;strokeWidth=2;" parent="1" vertex="1">
                    <mxGeometry x="-373" y="1056.06" width="68" height="139.88" as="geometry"/>
                </mxCell>
                <mxCell id="Rm_6-j9vatiKXGecLMbR-38" value="&lt;b style=&quot;font-size: 60px&quot;&gt;&lt;font style=&quot;font-size: 60px&quot;&gt;III&lt;/font&gt;&lt;/b&gt;" style="text;html=1;strokeColor=none;fillColor=none;align=center;verticalAlign=middle;whiteSpace=wrap;rounded=0;sketch=0;fontFamily=Lucida Console;fontSize=60;fontColor=#FFFFFF;" parent="1" vertex="1">
                    <mxGeometry x="-369" y="948.25" width="60" height="150" as="geometry"/>
                </mxCell>
                <mxCell id="Xno3NGJmczsKOu3R2XB9-120" style="edgeStyle=orthogonalEdgeStyle;orthogonalLoop=1;jettySize=auto;html=1;fontFamily=Lucida Console;fontSize=15;fontColor=default;endArrow=classic;rounded=0;strokeColor=#4D4D4D;sketch=0;strokeWidth=5;" parent="1" source="Sd7WDtTeQVXePmLQlXHq-2" target="D8-KQS5gUGrc6W0yMjmw-98" edge="1">
                    <mxGeometry relative="1" as="geometry">
                        <Array as="points">
                            <mxPoint x="-490" y="310.75"/>
                            <mxPoint x="-490" y="78.75"/>
                            <mxPoint x="150" y="78.75"/>
                        </Array>
                    </mxGeometry>
                </mxCell>
                <mxCell id="Sd7WDtTeQVXePmLQlXHq-2" value="&lt;div style=&quot;&quot;&gt;&lt;span style=&quot;background-color: initial;&quot;&gt;Download&lt;/span&gt;&lt;/div&gt;&lt;div style=&quot;&quot;&gt;&lt;span style=&quot;background-color: initial;&quot;&gt;'de novo'?&lt;/span&gt;&lt;/div&gt;" style="html=1;whiteSpace=wrap;container=1;recursiveResize=0;collapsible=0;rounded=1;shadow=0;glass=0;sketch=0;strokeWidth=3;fillColor=#4A5783;fontFamily=Lucida Console;fontSize=21;align=center;strokeColor=#7F7F7F;fontColor=#ffffff;" parent="1" vertex="1">
                    <mxGeometry x="-770" y="276.25" width="160" height="70" as="geometry"/>
                </mxCell>
                <mxCell id="Sd7WDtTeQVXePmLQlXHq-3" value="" style="triangle;html=1;whiteSpace=wrap;fillColor=#FFFFFF;fontFamily=Lucida Console;" parent="Sd7WDtTeQVXePmLQlXHq-2" vertex="1">
                    <mxGeometry x="3" y="20" width="20" height="30" as="geometry"/>
                </mxCell>
                <mxCell id="Xno3NGJmczsKOu3R2XB9-60" value="&amp;nbsp;calib. curves" style="strokeWidth=2;html=1;shape=mxgraph.flowchart.multi-document;whiteSpace=wrap;rounded=0;shadow=1;glass=0;sketch=0;fillColor=#ffffff;fontFamily=Lucida Console;fontSize=15;align=left;strokeColor=#7F7F7F;" parent="1" vertex="1">
                    <mxGeometry x="135.75" y="1527" width="170" height="60" as="geometry"/>
                </mxCell>
                <mxCell id="Xno3NGJmczsKOu3R2XB9-61" value="&amp;nbsp;Crash file" style="strokeWidth=2;html=1;shape=mxgraph.flowchart.multi-document;whiteSpace=wrap;rounded=0;shadow=1;glass=0;sketch=0;fillColor=#ffffff;fontFamily=Lucida Console;fontSize=15;align=left;strokeColor=#7F7F7F;" parent="1" vertex="1">
                    <mxGeometry x="135.75" y="1726.75" width="170" height="60" as="geometry"/>
                </mxCell>
                <mxCell id="Xno3NGJmczsKOu3R2XB9-69" value="true" style="whiteSpace=wrap;html=1;shape=partialRectangle;top=0;left=0;bottom=1;right=0;points=[[0,1],[1,1]];fillColor=none;align=center;verticalAlign=bottom;routingCenterY=0.5;snapToPoint=1;recursiveResize=0;autosize=1;treeFolding=1;treeMoving=1;newEdgeStyle={&quot;edgeStyle&quot;:&quot;entityRelationEdgeStyle&quot;,&quot;startArrow&quot;:&quot;none&quot;,&quot;endArrow&quot;:&quot;none&quot;,&quot;segment&quot;:10,&quot;curved&quot;:1};rounded=1;shadow=0;glass=0;sketch=0;strokeWidth=5;fontFamily=Lucida Console;fontSize=20;strokeColor=#4D4D4D;rotation=-90;" parent="1" vertex="1">
                    <mxGeometry x="-634" y="1409" width="80" height="27.5" as="geometry"/>
                </mxCell>
                <mxCell id="Xno3NGJmczsKOu3R2XB9-92" value="02_Run_age_depth_models.R" style="text;whiteSpace=wrap;fontSize=19;fontFamily=Lucida Console;fontColor=#FFFFFF;fontStyle=1;rotation=0;fillColor=none;labelBackgroundColor=none;labelBorderColor=none;" parent="1" vertex="1">
                    <mxGeometry x="-214" y="1666.25" width="444.5" height="30" as="geometry"/>
                </mxCell>
                <mxCell id="Xno3NGJmczsKOu3R2XB9-98" value="01_Prepare_chron_control_tables.R" style="text;whiteSpace=wrap;fontSize=19;fontFamily=Lucida Console;fontColor=#FFFFFF;fontStyle=1;rotation=0;fillColor=none;labelBackgroundColor=none;labelBorderColor=none;" parent="1" vertex="1">
                    <mxGeometry x="-214" y="1323" width="444.5" height="30" as="geometry"/>
                </mxCell>
                <mxCell id="Xno3NGJmczsKOu3R2XB9-113" value="04_Extract_chron_control_tables.R" style="text;whiteSpace=wrap;fontSize=19;fontFamily=Lucida Console;fontColor=#FFFFFF;fontStyle=1;rotation=0;fillColor=none;labelBackgroundColor=none;labelBorderColor=none;" parent="1" vertex="1">
                    <mxGeometry x="-214" y="427.25" width="404" height="30" as="geometry"/>
                </mxCell>
                <mxCell id="Xno3NGJmczsKOu3R2XB9-102" value="03_Predict_ages.R" style="text;whiteSpace=wrap;fontSize=19;fontFamily=Lucida Console;fontColor=#FFFFFF;fontStyle=1;rotation=0;fillColor=none;labelBackgroundColor=none;labelBorderColor=none;" parent="1" vertex="1">
                    <mxGeometry x="-214" y="2042" width="444.5" height="30" as="geometry"/>
                </mxCell>
                <mxCell id="Xno3NGJmczsKOu3R2XB9-103" value="04_Save_AD_figures.R" style="text;whiteSpace=wrap;fontSize=19;fontFamily=Lucida Console;fontColor=#FFFFFF;fontStyle=1;rotation=0;fillColor=none;labelBackgroundColor=none;labelBorderColor=none;" parent="1" vertex="1">
                    <mxGeometry x="-214" y="2090.5" width="444.5" height="30" as="geometry"/>
                </mxCell>
                <mxCell id="Xno3NGJmczsKOu3R2XB9-149" style="edgeStyle=orthogonalEdgeStyle;orthogonalLoop=1;jettySize=auto;html=1;fontFamily=Lucida Console;fontSize=15;fontColor=default;endArrow=classic;rounded=0;strokeColor=#4D4D4D;sketch=0;strokeWidth=5;" parent="1" source="D8-KQS5gUGrc6W0yMjmw-224" target="Xno3NGJmczsKOu3R2XB9-146" edge="1">
                    <mxGeometry relative="1" as="geometry">
                        <Array as="points">
                            <mxPoint x="81" y="2270"/>
                            <mxPoint x="-480" y="2270"/>
                        </Array>
                    </mxGeometry>
                </mxCell>
                <mxCell id="Xno3NGJmczsKOu3R2XB9-104" value="05_Merge_chron_output.R" style="text;whiteSpace=wrap;fontSize=19;fontFamily=Lucida Console;fontColor=#FFFFFF;fontStyle=1;rotation=0;fillColor=none;labelBackgroundColor=none;labelBorderColor=none;" parent="1" vertex="1">
                    <mxGeometry x="-214" y="2234" width="444.5" height="30" as="geometry"/>
                </mxCell>
                <mxCell id="Xno3NGJmczsKOu3R2XB9-106" value="01_Download_neotoma.R" style="text;whiteSpace=wrap;fontSize=19;fontFamily=Lucida Console;fontColor=#FFFFFF;fontStyle=1;rotation=0;fillColor=none;labelBackgroundColor=none;labelBorderColor=none;" parent="1" vertex="1">
                    <mxGeometry x="-214" y="108.75" width="444.5" height="30" as="geometry"/>
                </mxCell>
                <mxCell id="Xno3NGJmczsKOu3R2XB9-109" value="02_Extract_samples.R" style="text;whiteSpace=wrap;fontSize=19;fontFamily=Lucida Console;fontColor=#FFFFFF;fontStyle=1;rotation=0;fillColor=none;labelBackgroundColor=none;labelBorderColor=none;" parent="1" vertex="1">
                    <mxGeometry x="-214" y="219" width="444.5" height="30" as="geometry"/>
                </mxCell>
                <mxCell id="Xno3NGJmczsKOu3R2XB9-110" value="03_Filter_dep_env.R" style="text;whiteSpace=wrap;fontSize=19;fontFamily=Lucida Console;fontColor=#FFFFFF;fontStyle=1;rotation=0;fillColor=none;labelBackgroundColor=none;labelBorderColor=none;" parent="1" vertex="1">
                    <mxGeometry x="-214" y="271.75" width="444.5" height="30" as="geometry"/>
                </mxCell>
                <mxCell id="Xno3NGJmczsKOu3R2XB9-116" value="05_Extract_raw_pollen_data.R" style="text;whiteSpace=wrap;fontSize=19;fontFamily=Lucida Console;fontColor=#FFFFFF;fontStyle=1;rotation=0;fillColor=none;labelBackgroundColor=none;labelBorderColor=none;" parent="1" vertex="1">
                    <mxGeometry x="-214" y="551.75" width="361" height="30" as="geometry"/>
                </mxCell>
                <mxCell id="Xno3NGJmczsKOu3R2XB9-124" value="" style="shape=curlyBracket;whiteSpace=wrap;html=1;rounded=1;shadow=0;labelBackgroundColor=none;labelBorderColor=none;sketch=1;fontFamily=Lucida Console;fontSize=19;strokeWidth=1;size=0.49999999999999994;fillColor=none;strokeColor=#FFFFFF;" parent="1" vertex="1">
                    <mxGeometry x="-260" y="138.75" width="30" height="501.25" as="geometry"/>
                </mxCell>
                <mxCell id="Xno3NGJmczsKOu3R2XB9-125" value="Neotoma" style="shape=cylinder3;whiteSpace=wrap;html=1;boundedLbl=1;backgroundOutline=1;size=15;rounded=0;glass=1;fontFamily=Lucida Console;fontSize=21;sketch=1;strokeColor=#7F7F7F;strokeWidth=3;" parent="1" vertex="1">
                    <mxGeometry x="-399" y="334.5" width="120" height="60" as="geometry"/>
                </mxCell>
                <mxCell id="Xno3NGJmczsKOu3R2XB9-126" value="AD models" style="shape=cylinder3;whiteSpace=wrap;html=1;boundedLbl=1;backgroundOutline=1;size=15;rounded=0;glass=1;fontFamily=Lucida Console;fontSize=21;sketch=1;strokeColor=#7F7F7F;strokeWidth=3;" parent="1" vertex="1">
                    <mxGeometry x="160.75" y="1819.25" width="120" height="60" as="geometry"/>
                </mxCell>
                <mxCell id="Xno3NGJmczsKOu3R2XB9-127" value="01_Import_other_data.R" style="text;whiteSpace=wrap;fontSize=19;fontFamily=Lucida Console;fontColor=#FFFFFF;fontStyle=1;rotation=0;fillColor=none;labelBackgroundColor=none;labelBorderColor=none;" parent="1" vertex="1">
                    <mxGeometry x="-214" y="695.37" width="444.5" height="30" as="geometry"/>
                </mxCell>
                <mxCell id="Xno3NGJmczsKOu3R2XB9-128" value="01_Merge_datasets.R" style="text;whiteSpace=wrap;fontSize=19;fontFamily=Lucida Console;fontColor=#FFFFFF;fontStyle=1;rotation=0;fillColor=none;labelBackgroundColor=none;labelBorderColor=none;" parent="1" vertex="1">
                    <mxGeometry x="-214" y="924.25" width="444.5" height="30" as="geometry"/>
                </mxCell>
                <mxCell id="D8-KQS5gUGrc6W0yMjmw-8" value="&amp;nbsp;Geographical criteria" style="rounded=0;whiteSpace=wrap;html=1;glass=0;fontFamily=Lucida Console;fontSize=16;align=center;strokeColor=#F2FF15;fillColor=#F2FF15;shadow=0;sketch=1;fontStyle=1;fontColor=#33001A;" parent="1" vertex="1">
                    <mxGeometry x="-171.25" y="152.25" width="257" height="30" as="geometry"/>
                </mxCell>
                <mxCell id="ljsbQq2XFhJ2r-xU6_tJ-291" value="1" style="text;html=1;strokeColor=none;fillColor=none;align=center;verticalAlign=middle;whiteSpace=wrap;rounded=0;sketch=1;fontFamily=Lucida Console;fontSize=20;fontColor=#4D4D4D;" parent="1" vertex="1">
                    <mxGeometry x="-220" y="152.25" width="60" height="30" as="geometry"/>
                </mxCell>
                <mxCell id="D8-KQS5gUGrc6W0yMjmw-11" value="chron_order" style="rounded=0;whiteSpace=wrap;html=1;glass=0;fontFamily=Lucida Console;fontSize=16;align=center;strokeColor=#F2FF15;fillColor=#F2FF15;shadow=0;sketch=1;fontStyle=1" parent="1" vertex="1">
                    <mxGeometry x="-171.25" y="459.75" width="257" height="30" as="geometry"/>
                </mxCell>
                <mxCell id="ljsbQq2XFhJ2r-xU6_tJ-292" value="2" style="text;html=1;strokeColor=none;fillColor=none;align=center;verticalAlign=middle;whiteSpace=wrap;rounded=0;sketch=1;fontFamily=Lucida Console;fontSize=20;fontColor=#4D4D4D;" parent="1" vertex="1">
                    <mxGeometry x="-220" y="459.75" width="60" height="30" as="geometry"/>
                </mxCell>
                <mxCell id="Xno3NGJmczsKOu3R2XB9-166" style="edgeStyle=orthogonalEdgeStyle;orthogonalLoop=1;jettySize=auto;html=1;fontFamily=Lucida Console;fontSize=15;fontColor=default;endArrow=classic;rounded=0;strokeColor=#4D4D4D;sketch=0;strokeWidth=5;" parent="1" source="Xno3NGJmczsKOu3R2XB9-144" target="D8-KQS5gUGrc6W0yMjmw-228" edge="1">
                    <mxGeometry relative="1" as="geometry"/>
                </mxCell>
                <mxCell id="Xno3NGJmczsKOu3R2XB9-144" value="" style="strokeWidth=3;html=1;shape=mxgraph.flowchart.stored_data;whiteSpace=wrap;rounded=0;glass=1;fillColor=#FF2215;fontFamily=Lucida Console;fontSize=15;align=left;sketch=1;strokeColor=#4D4D4D;" parent="1" vertex="1">
                    <mxGeometry x="-740" y="1231.75" width="100" height="30" as="geometry"/>
                </mxCell>
                <mxCell id="Xno3NGJmczsKOu3R2XB9-150" style="edgeStyle=orthogonalEdgeStyle;orthogonalLoop=1;jettySize=auto;html=1;fontFamily=Lucida Console;fontSize=15;fontColor=default;endArrow=classic;rounded=0;strokeColor=#4D4D4D;sketch=0;strokeWidth=5;entryX=0;entryY=0.5;entryDx=0;entryDy=0;" parent="1" source="Xno3NGJmczsKOu3R2XB9-146" target="ljsbQq2XFhJ2r-xU6_tJ-36" edge="1">
                    <mxGeometry relative="1" as="geometry">
                        <Array as="points">
                            <mxPoint x="-474" y="2430"/>
                            <mxPoint x="450" y="2430"/>
                            <mxPoint x="450" y="179"/>
                        </Array>
                    </mxGeometry>
                </mxCell>
                <mxCell id="Xno3NGJmczsKOu3R2XB9-146" value="" style="strokeWidth=3;html=1;shape=mxgraph.flowchart.stored_data;whiteSpace=wrap;rounded=0;glass=1;fillColor=#FF2215;fontFamily=Lucida Console;fontSize=15;align=left;sketch=1;strokeColor=#4D4D4D;" parent="1" vertex="1">
                    <mxGeometry x="-524" y="2340" width="100" height="30" as="geometry"/>
                </mxCell>
                <mxCell id="Xno3NGJmczsKOu3R2XB9-152" value="01_Harmonisation.R" style="text;whiteSpace=wrap;fontSize=19;fontFamily=Lucida Console;fontColor=#FFFFFF;fontStyle=1;rotation=0;fillColor=none;labelBackgroundColor=none;labelBorderColor=none;" parent="1" vertex="1">
                    <mxGeometry x="1006.5" y="138" width="444.5" height="30" as="geometry"/>
                </mxCell>
                <mxCell id="Xno3NGJmczsKOu3R2XB9-157" style="edgeStyle=orthogonalEdgeStyle;orthogonalLoop=1;jettySize=auto;html=1;fontFamily=Lucida Console;fontSize=15;fontColor=default;endArrow=classic;rounded=0;strokeColor=#4D4D4D;sketch=0;strokeWidth=5;exitX=0.5;exitY=1;exitDx=0;exitDy=0;exitPerimeter=0;" parent="1" source="Xno3NGJmczsKOu3R2XB9-155" target="ljsbQq2XFhJ2r-xU6_tJ-159" edge="1">
                    <mxGeometry relative="1" as="geometry">
                        <mxPoint x="628.5000000000009" y="579.1700000000001" as="sourcePoint"/>
                        <Array as="points"/>
                    </mxGeometry>
                </mxCell>
                <mxCell id="Xno3NGJmczsKOu3R2XB9-155" value="" style="strokeWidth=3;html=1;shape=mxgraph.flowchart.stored_data;whiteSpace=wrap;rounded=0;glass=1;fillColor=#FF2215;fontFamily=Lucida Console;fontSize=15;align=left;sketch=1;strokeColor=#4D4D4D;" parent="1" vertex="1">
                    <mxGeometry x="578.5" y="340" width="100" height="30" as="geometry"/>
                </mxCell>
                <mxCell id="Xno3NGJmczsKOu3R2XB9-159" value="01_Level_filtering.R" style="text;whiteSpace=wrap;fontSize=19;fontFamily=Lucida Console;fontColor=#FFFFFF;fontStyle=1;rotation=0;fillColor=none;labelBackgroundColor=none;labelBorderColor=none;" parent="1" vertex="1">
                    <mxGeometry x="1010" y="621.25" width="444.5" height="30" as="geometry"/>
                </mxCell>
                <mxCell id="Xno3NGJmczsKOu3R2XB9-167" value="maximum_age_extrapolation" style="rounded=0;whiteSpace=wrap;html=1;glass=0;fontFamily=Lucida Console;fontSize=16;align=center;strokeColor=#F2FF15;fillColor=#F2FF15;shadow=0;sketch=1;fontStyle=1" parent="1" vertex="1">
                    <mxGeometry x="1063.5" y="916.75" width="260" height="30" as="geometry"/>
                </mxCell>
                <mxCell id="Xno3NGJmczsKOu3R2XB9-168" value="filter_by_interest_region" style="rounded=0;whiteSpace=wrap;html=1;glass=0;fontFamily=Lucida Console;fontSize=16;align=center;strokeColor=#F2FF15;fillColor=#F2FF15;shadow=0;sketch=1;fontStyle=1" parent="1" vertex="1">
                    <mxGeometry x="1064.5" y="957.75" width="260" height="30" as="geometry"/>
                </mxCell>
                <mxCell id="Xno3NGJmczsKOu3R2XB9-169" value="filter_by_number_of_levels" style="rounded=0;whiteSpace=wrap;html=1;glass=0;fontFamily=Lucida Console;fontSize=16;align=center;strokeColor=#F2FF15;fillColor=#F2FF15;shadow=0;sketch=1;fontStyle=1" parent="1" vertex="1">
                    <mxGeometry x="1065.25" y="998.75" width="260" height="30" as="geometry"/>
                </mxCell>
                <mxCell id="Xno3NGJmczsKOu3R2XB9-170" value="min_n_levels" style="rounded=0;whiteSpace=wrap;html=1;glass=0;fontFamily=Lucida Console;fontSize=16;align=center;strokeColor=#F2FF15;fillColor=#F2FF15;shadow=0;sketch=1;fontStyle=1" parent="1" vertex="1">
                    <mxGeometry x="1063.5" y="1039.75" width="260" height="30" as="geometry"/>
                </mxCell>
                <mxCell id="Xno3NGJmczsKOu3R2XB9-171" value="use_age_quantiles" style="rounded=0;whiteSpace=wrap;html=1;glass=0;fontFamily=Lucida Console;fontSize=16;align=center;strokeColor=#F2FF15;fillColor=#F2FF15;shadow=0;sketch=1;fontStyle=1" parent="1" vertex="1">
                    <mxGeometry x="1064" y="1081.75" width="260" height="30" as="geometry"/>
                </mxCell>
                <mxCell id="Xno3NGJmczsKOu3R2XB9-172" value="use_bookend_level" style="rounded=0;whiteSpace=wrap;html=1;glass=0;fontFamily=Lucida Console;fontSize=16;align=center;strokeColor=#F2FF15;fillColor=#F2FF15;shadow=0;sketch=1;fontStyle=1" parent="1" vertex="1">
                    <mxGeometry x="1063.5" y="1122.5" width="260" height="30" as="geometry"/>
                </mxCell>
                <mxCell id="ljsbQq2XFhJ2r-xU6_tJ-156" value="&lt;b&gt;V&lt;/b&gt;" style="text;html=1;strokeColor=none;fillColor=none;align=center;verticalAlign=middle;whiteSpace=wrap;rounded=0;sketch=0;fontFamily=Lucida Console;fontSize=60;fontColor=#FFFFFF;" parent="1" vertex="1">
                    <mxGeometry x="890" y="154" width="60" height="150" as="geometry"/>
                </mxCell>
                <mxCell id="Xno3NGJmczsKOu3R2XB9-222" style="edgeStyle=orthogonalEdgeStyle;orthogonalLoop=1;jettySize=auto;html=1;entryX=0;entryY=0.5;entryDx=0;entryDy=0;fontFamily=Lucida Console;fontSize=15;fontColor=default;endArrow=classic;rounded=0;strokeColor=#4D4D4D;sketch=0;strokeWidth=5;" parent="1" source="Xno3NGJmczsKOu3R2XB9-194" target="Xno3NGJmczsKOu3R2XB9-198" edge="1">
                    <mxGeometry relative="1" as="geometry">
                        <Array as="points">
                            <mxPoint x="629" y="1429"/>
                        </Array>
                    </mxGeometry>
                </mxCell>
                <mxCell id="Xno3NGJmczsKOu3R2XB9-194" value="Outputs" style="rounded=1;whiteSpace=wrap;html=1;fontFamily=Lucida Console;fontSize=21;sketch=0;fillColor=#FF9715;strokeColor=#7F7F7F;fontColor=#ffffff;fontStyle=1;strokeWidth=3;" parent="1" vertex="1">
                    <mxGeometry x="548.5" y="1310" width="160" height="80" as="geometry"/>
                </mxCell>
                <mxCell id="Xno3NGJmczsKOu3R2XB9-200" value="" style="group" parent="1" vertex="1" connectable="0">
                    <mxGeometry x="146.5" y="734.25" width="180.5" height="92.13000000000011" as="geometry"/>
                </mxCell>
                <mxCell id="D8-KQS5gUGrc6W0yMjmw-65" value="&lt;span style=&quot;font-size: 16px;&quot;&gt;&amp;nbsp;Depositional environment&lt;/span&gt;" style="shape=table;html=1;whiteSpace=wrap;startSize=33;container=1;collapsible=0;childLayout=tableLayout;fontStyle=1;align=center;rounded=0;glass=1;fontFamily=Lucida Console;fontSize=15;sketch=1;strokeColor=#7F7F7F;" parent="Xno3NGJmczsKOu3R2XB9-200" vertex="1">
                    <mxGeometry x="-15.75" width="180" height="92.13000000000011" as="geometry"/>
                </mxCell>
                <mxCell id="D8-KQS5gUGrc6W0yMjmw-66" value="" style="shape=partialRectangle;html=1;whiteSpace=wrap;collapsible=0;dropTarget=0;pointerEvents=0;fillColor=none;top=0;left=0;bottom=0;right=0;points=[[0,0.5],[1,0.5]];portConstraint=eastwest;fontFamily=Lucida Console;" parent="D8-KQS5gUGrc6W0yMjmw-65" vertex="1">
                    <mxGeometry y="33" width="180" height="20" as="geometry"/>
                </mxCell>
                <mxCell id="D8-KQS5gUGrc6W0yMjmw-67" value="" style="shape=partialRectangle;html=1;whiteSpace=wrap;connectable=0;fillColor=none;top=0;left=0;bottom=0;right=0;overflow=hidden;fontFamily=Lucida Console;" parent="D8-KQS5gUGrc6W0yMjmw-66" vertex="1">
                    <mxGeometry width="60" height="20" as="geometry">
                        <mxRectangle width="60" height="20" as="alternateBounds"/>
                    </mxGeometry>
                </mxCell>
                <mxCell id="D8-KQS5gUGrc6W0yMjmw-68" value="" style="shape=partialRectangle;html=1;whiteSpace=wrap;connectable=0;fillColor=none;top=0;left=0;bottom=0;right=0;overflow=hidden;fontFamily=Lucida Console;" parent="D8-KQS5gUGrc6W0yMjmw-66" vertex="1">
                    <mxGeometry x="60" width="60" height="20" as="geometry">
                        <mxRectangle width="60" height="20" as="alternateBounds"/>
                    </mxGeometry>
                </mxCell>
                <mxCell id="D8-KQS5gUGrc6W0yMjmw-69" value="" style="shape=partialRectangle;html=1;whiteSpace=wrap;connectable=0;fillColor=none;top=0;left=0;bottom=0;right=0;overflow=hidden;fontFamily=Lucida Console;" parent="D8-KQS5gUGrc6W0yMjmw-66" vertex="1">
                    <mxGeometry x="120" width="60" height="20" as="geometry">
                        <mxRectangle width="60" height="20" as="alternateBounds"/>
                    </mxGeometry>
                </mxCell>
                <mxCell id="D8-KQS5gUGrc6W0yMjmw-70" value="" style="shape=partialRectangle;html=1;whiteSpace=wrap;collapsible=0;dropTarget=0;pointerEvents=0;fillColor=none;top=0;left=0;bottom=0;right=0;points=[[0,0.5],[1,0.5]];portConstraint=eastwest;fontFamily=Lucida Console;" parent="D8-KQS5gUGrc6W0yMjmw-65" vertex="1">
                    <mxGeometry y="53" width="180" height="19" as="geometry"/>
                </mxCell>
                <mxCell id="D8-KQS5gUGrc6W0yMjmw-71" value="" style="shape=partialRectangle;html=1;whiteSpace=wrap;connectable=0;fillColor=none;top=0;left=0;bottom=0;right=0;overflow=hidden;fontFamily=Lucida Console;" parent="D8-KQS5gUGrc6W0yMjmw-70" vertex="1">
                    <mxGeometry width="60" height="19" as="geometry">
                        <mxRectangle width="60" height="19" as="alternateBounds"/>
                    </mxGeometry>
                </mxCell>
                <mxCell id="D8-KQS5gUGrc6W0yMjmw-72" value="" style="shape=partialRectangle;html=1;whiteSpace=wrap;connectable=0;fillColor=none;top=0;left=0;bottom=0;right=0;overflow=hidden;fontFamily=Lucida Console;" parent="D8-KQS5gUGrc6W0yMjmw-70" vertex="1">
                    <mxGeometry x="60" width="60" height="19" as="geometry">
                        <mxRectangle width="60" height="19" as="alternateBounds"/>
                    </mxGeometry>
                </mxCell>
                <mxCell id="D8-KQS5gUGrc6W0yMjmw-73" value="" style="shape=partialRectangle;html=1;whiteSpace=wrap;connectable=0;fillColor=none;top=0;left=0;bottom=0;right=0;overflow=hidden;fontFamily=Lucida Console;" parent="D8-KQS5gUGrc6W0yMjmw-70" vertex="1">
                    <mxGeometry x="120" width="60" height="19" as="geometry">
                        <mxRectangle width="60" height="19" as="alternateBounds"/>
                    </mxGeometry>
                </mxCell>
                <mxCell id="D8-KQS5gUGrc6W0yMjmw-74" value="" style="shape=partialRectangle;html=1;whiteSpace=wrap;collapsible=0;dropTarget=0;pointerEvents=0;fillColor=none;top=0;left=0;bottom=0;right=0;points=[[0,0.5],[1,0.5]];portConstraint=eastwest;fontFamily=Lucida Console;" parent="D8-KQS5gUGrc6W0yMjmw-65" vertex="1">
                    <mxGeometry y="72" width="180" height="20" as="geometry"/>
                </mxCell>
                <mxCell id="D8-KQS5gUGrc6W0yMjmw-75" value="" style="shape=partialRectangle;html=1;whiteSpace=wrap;connectable=0;fillColor=none;top=0;left=0;bottom=0;right=0;overflow=hidden;fontFamily=Lucida Console;" parent="D8-KQS5gUGrc6W0yMjmw-74" vertex="1">
                    <mxGeometry width="60" height="20" as="geometry">
                        <mxRectangle width="60" height="20" as="alternateBounds"/>
                    </mxGeometry>
                </mxCell>
                <mxCell id="D8-KQS5gUGrc6W0yMjmw-76" value="" style="shape=partialRectangle;html=1;whiteSpace=wrap;connectable=0;fillColor=none;top=0;left=0;bottom=0;right=0;overflow=hidden;fontFamily=Lucida Console;" parent="D8-KQS5gUGrc6W0yMjmw-74" vertex="1">
                    <mxGeometry x="60" width="60" height="20" as="geometry">
                        <mxRectangle width="60" height="20" as="alternateBounds"/>
                    </mxGeometry>
                </mxCell>
                <mxCell id="D8-KQS5gUGrc6W0yMjmw-77" value="" style="shape=partialRectangle;html=1;whiteSpace=wrap;connectable=0;fillColor=none;top=0;left=0;bottom=0;right=0;overflow=hidden;fontFamily=Lucida Console;" parent="D8-KQS5gUGrc6W0yMjmw-74" vertex="1">
                    <mxGeometry x="120" width="60" height="20" as="geometry">
                        <mxRectangle width="60" height="20" as="alternateBounds"/>
                    </mxGeometry>
                </mxCell>
                <mxCell id="D8-KQS5gUGrc6W0yMjmw-91" value="" style="verticalLabelPosition=bottom;verticalAlign=top;html=1;shape=mxgraph.basic.tick;rounded=0;glass=1;fontFamily=Lucida Console;fontSize=15;align=left;fillColor=#00507B;strokeWidth=1;strokeColor=none;" parent="Xno3NGJmczsKOu3R2XB9-200" vertex="1">
                    <mxGeometry x="140" y="25" width="40" height="40" as="geometry"/>
                </mxCell>
                <mxCell id="D8-KQS5gUGrc6W0yMjmw-92" value="" style="verticalLabelPosition=bottom;verticalAlign=top;html=1;shape=mxgraph.basic.tick;rounded=0;glass=1;fontFamily=Lucida Console;fontSize=15;align=left;fillColor=#00507B;strokeWidth=1;strokeColor=none;" parent="Xno3NGJmczsKOu3R2XB9-200" vertex="1">
                    <mxGeometry x="140" y="50" width="40" height="40" as="geometry"/>
                </mxCell>
                <mxCell id="Xno3NGJmczsKOu3R2XB9-202" value="" style="group" parent="1" vertex="1" connectable="0">
                    <mxGeometry x="146.75" y="1071" width="180" height="90" as="geometry"/>
                </mxCell>
                <mxCell id="Xno3NGJmczsKOu3R2XB9-18" value="&lt;span style=&quot;font-size: 16px;&quot;&gt;Regional age limits&lt;/span&gt;" style="shape=table;html=1;whiteSpace=wrap;startSize=30;container=1;collapsible=0;childLayout=tableLayout;fontStyle=1;align=center;rounded=0;glass=1;fontFamily=Lucida Console;fontSize=15;sketch=1;strokeColor=#7F7F7F;" parent="Xno3NGJmczsKOu3R2XB9-202" vertex="1">
                    <mxGeometry x="-16" width="180" height="90" as="geometry"/>
                </mxCell>
                <mxCell id="Xno3NGJmczsKOu3R2XB9-19" value="" style="shape=partialRectangle;html=1;whiteSpace=wrap;collapsible=0;dropTarget=0;pointerEvents=0;fillColor=none;top=0;left=0;bottom=0;right=0;points=[[0,0.5],[1,0.5]];portConstraint=eastwest;fontFamily=Lucida Console;" parent="Xno3NGJmczsKOu3R2XB9-18" vertex="1">
                    <mxGeometry y="30" width="180" height="20" as="geometry"/>
                </mxCell>
                <mxCell id="Xno3NGJmczsKOu3R2XB9-20" value="" style="shape=partialRectangle;html=1;whiteSpace=wrap;connectable=0;fillColor=none;top=0;left=0;bottom=0;right=0;overflow=hidden;fontFamily=Lucida Console;" parent="Xno3NGJmczsKOu3R2XB9-19" vertex="1">
                    <mxGeometry width="60" height="20" as="geometry">
                        <mxRectangle width="60" height="20" as="alternateBounds"/>
                    </mxGeometry>
                </mxCell>
                <mxCell id="Xno3NGJmczsKOu3R2XB9-21" value="" style="shape=partialRectangle;html=1;whiteSpace=wrap;connectable=0;fillColor=none;top=0;left=0;bottom=0;right=0;overflow=hidden;fontFamily=Lucida Console;" parent="Xno3NGJmczsKOu3R2XB9-19" vertex="1">
                    <mxGeometry x="60" width="60" height="20" as="geometry">
                        <mxRectangle width="60" height="20" as="alternateBounds"/>
                    </mxGeometry>
                </mxCell>
                <mxCell id="Xno3NGJmczsKOu3R2XB9-22" value="" style="shape=partialRectangle;html=1;whiteSpace=wrap;connectable=0;fillColor=none;top=0;left=0;bottom=0;right=0;overflow=hidden;fontFamily=Lucida Console;" parent="Xno3NGJmczsKOu3R2XB9-19" vertex="1">
                    <mxGeometry x="120" width="60" height="20" as="geometry">
                        <mxRectangle width="60" height="20" as="alternateBounds"/>
                    </mxGeometry>
                </mxCell>
                <mxCell id="Xno3NGJmczsKOu3R2XB9-23" value="" style="shape=partialRectangle;html=1;whiteSpace=wrap;collapsible=0;dropTarget=0;pointerEvents=0;fillColor=none;top=0;left=0;bottom=0;right=0;points=[[0,0.5],[1,0.5]];portConstraint=eastwest;fontFamily=Lucida Console;" parent="Xno3NGJmczsKOu3R2XB9-18" vertex="1">
                    <mxGeometry y="50" width="180" height="20" as="geometry"/>
                </mxCell>
                <mxCell id="Xno3NGJmczsKOu3R2XB9-24" value="" style="shape=partialRectangle;html=1;whiteSpace=wrap;connectable=0;fillColor=none;top=0;left=0;bottom=0;right=0;overflow=hidden;fontFamily=Lucida Console;" parent="Xno3NGJmczsKOu3R2XB9-23" vertex="1">
                    <mxGeometry width="60" height="20" as="geometry">
                        <mxRectangle width="60" height="20" as="alternateBounds"/>
                    </mxGeometry>
                </mxCell>
                <mxCell id="Xno3NGJmczsKOu3R2XB9-25" value="" style="shape=partialRectangle;html=1;whiteSpace=wrap;connectable=0;fillColor=none;top=0;left=0;bottom=0;right=0;overflow=hidden;fontFamily=Lucida Console;" parent="Xno3NGJmczsKOu3R2XB9-23" vertex="1">
                    <mxGeometry x="60" width="60" height="20" as="geometry">
                        <mxRectangle width="60" height="20" as="alternateBounds"/>
                    </mxGeometry>
                </mxCell>
                <mxCell id="Xno3NGJmczsKOu3R2XB9-26" value="" style="shape=partialRectangle;html=1;whiteSpace=wrap;connectable=0;fillColor=none;top=0;left=0;bottom=0;right=0;overflow=hidden;fontFamily=Lucida Console;" parent="Xno3NGJmczsKOu3R2XB9-23" vertex="1">
                    <mxGeometry x="120" width="60" height="20" as="geometry">
                        <mxRectangle width="60" height="20" as="alternateBounds"/>
                    </mxGeometry>
                </mxCell>
                <mxCell id="Xno3NGJmczsKOu3R2XB9-27" value="" style="shape=partialRectangle;html=1;whiteSpace=wrap;collapsible=0;dropTarget=0;pointerEvents=0;fillColor=none;top=0;left=0;bottom=0;right=0;points=[[0,0.5],[1,0.5]];portConstraint=eastwest;fontFamily=Lucida Console;" parent="Xno3NGJmczsKOu3R2XB9-18" vertex="1">
                    <mxGeometry y="70" width="180" height="20" as="geometry"/>
                </mxCell>
                <mxCell id="Xno3NGJmczsKOu3R2XB9-28" value="" style="shape=partialRectangle;html=1;whiteSpace=wrap;connectable=0;fillColor=none;top=0;left=0;bottom=0;right=0;overflow=hidden;fontFamily=Lucida Console;" parent="Xno3NGJmczsKOu3R2XB9-27" vertex="1">
                    <mxGeometry width="60" height="20" as="geometry">
                        <mxRectangle width="60" height="20" as="alternateBounds"/>
                    </mxGeometry>
                </mxCell>
                <mxCell id="Xno3NGJmczsKOu3R2XB9-29" value="" style="shape=partialRectangle;html=1;whiteSpace=wrap;connectable=0;fillColor=none;top=0;left=0;bottom=0;right=0;overflow=hidden;fontFamily=Lucida Console;" parent="Xno3NGJmczsKOu3R2XB9-27" vertex="1">
                    <mxGeometry x="60" width="60" height="20" as="geometry">
                        <mxRectangle width="60" height="20" as="alternateBounds"/>
                    </mxGeometry>
                </mxCell>
                <mxCell id="Xno3NGJmczsKOu3R2XB9-30" value="" style="shape=partialRectangle;html=1;whiteSpace=wrap;connectable=0;fillColor=none;top=0;left=0;bottom=0;right=0;overflow=hidden;fontFamily=Lucida Console;" parent="Xno3NGJmczsKOu3R2XB9-27" vertex="1">
                    <mxGeometry x="120" width="60" height="20" as="geometry">
                        <mxRectangle width="60" height="20" as="alternateBounds"/>
                    </mxGeometry>
                </mxCell>
                <mxCell id="Xno3NGJmczsKOu3R2XB9-31" value="" style="verticalLabelPosition=bottom;verticalAlign=top;html=1;shape=mxgraph.basic.tick;rounded=0;glass=1;fontFamily=Lucida Console;fontSize=15;align=left;fillColor=#00507B;strokeWidth=1;strokeColor=none;" parent="Xno3NGJmczsKOu3R2XB9-202" vertex="1">
                    <mxGeometry x="130" y="25.25" width="40" height="40" as="geometry"/>
                </mxCell>
                <mxCell id="Xno3NGJmczsKOu3R2XB9-32" value="" style="verticalLabelPosition=bottom;verticalAlign=top;html=1;shape=mxgraph.basic.tick;rounded=0;glass=1;fontFamily=Lucida Console;fontSize=15;align=left;fillColor=#00507B;strokeWidth=1;strokeColor=none;" parent="Xno3NGJmczsKOu3R2XB9-202" vertex="1">
                    <mxGeometry x="130" y="47.25" width="40" height="40" as="geometry"/>
                </mxCell>
                <mxCell id="D8-KQS5gUGrc6W0yMjmw-232" value="min_n_of_control_points&amp;nbsp;" style="rounded=0;whiteSpace=wrap;html=1;glass=0;fontFamily=Lucida Console;fontSize=16;align=center;strokeColor=#F2FF15;fillColor=#F2FF15;shadow=0;sketch=1;fontStyle=1" parent="1" vertex="1">
                    <mxGeometry x="-171.25" y="1368.5" width="247" height="30" as="geometry"/>
                </mxCell>
                <mxCell id="ljsbQq2XFhJ2r-xU6_tJ-306" value="8" style="text;html=1;strokeColor=none;fillColor=none;align=center;verticalAlign=middle;whiteSpace=wrap;rounded=0;sketch=1;fontFamily=Lucida Console;fontSize=20;fontColor=#4D4D4D;" parent="1" vertex="1">
                    <mxGeometry x="-220" y="1368.5" width="60" height="30" as="geometry"/>
                </mxCell>
                <mxCell id="D8-KQS5gUGrc6W0yMjmw-237" value="default_thickness" style="rounded=0;whiteSpace=wrap;html=1;glass=0;fontFamily=Lucida Console;fontSize=16;align=center;strokeColor=#F2FF15;fillColor=#F2FF15;shadow=0;sketch=1;fontStyle=1" parent="1" vertex="1">
                    <mxGeometry x="-171.25" y="1408.5" width="247" height="30" as="geometry"/>
                </mxCell>
                <mxCell id="ljsbQq2XFhJ2r-xU6_tJ-312" value="9" style="text;html=1;strokeColor=none;fillColor=none;align=center;verticalAlign=middle;whiteSpace=wrap;rounded=0;sketch=1;fontFamily=Lucida Console;fontSize=20;fontColor=#4D4D4D;" parent="1" vertex="1">
                    <mxGeometry x="-220" y="1410.75" width="60" height="25.5" as="geometry"/>
                </mxCell>
                <mxCell id="D8-KQS5gUGrc6W0yMjmw-239" value="default_error" style="rounded=0;whiteSpace=wrap;html=1;glass=0;fontFamily=Lucida Console;fontSize=16;align=center;strokeColor=#F2FF15;fillColor=#F2FF15;shadow=0;sketch=1;fontStyle=1" parent="1" vertex="1">
                    <mxGeometry x="-171.25" y="1456.5" width="247" height="30" as="geometry"/>
                </mxCell>
                <mxCell id="ljsbQq2XFhJ2r-xU6_tJ-309" value="10" style="text;html=1;strokeColor=none;fillColor=none;align=center;verticalAlign=middle;whiteSpace=wrap;rounded=0;sketch=1;fontFamily=Lucida Console;fontSize=20;fontColor=#4D4D4D;" parent="1" vertex="1">
                    <mxGeometry x="-220" y="1456.5" width="60" height="30" as="geometry"/>
                </mxCell>
                <mxCell id="D8-KQS5gUGrc6W0yMjmw-241" value="max_age_error" style="rounded=0;whiteSpace=wrap;html=1;glass=0;fontFamily=Lucida Console;fontSize=16;align=center;strokeColor=#F2FF15;fillColor=#F2FF15;shadow=0;sketch=1;fontStyle=1" parent="1" vertex="1">
                    <mxGeometry x="-171.25" y="1505.5" width="247" height="30" as="geometry"/>
                </mxCell>
                <mxCell id="ljsbQq2XFhJ2r-xU6_tJ-310" value="11" style="text;html=1;strokeColor=none;fillColor=none;align=center;verticalAlign=middle;whiteSpace=wrap;rounded=0;sketch=1;fontFamily=Lucida Console;fontSize=20;fontColor=#4D4D4D;" parent="1" vertex="1">
                    <mxGeometry x="-220" y="1505.5" width="60" height="30" as="geometry"/>
                </mxCell>
                <mxCell id="D8-KQS5gUGrc6W0yMjmw-243" value="guess_depth" style="rounded=0;whiteSpace=wrap;html=1;glass=0;fontFamily=Lucida Console;fontSize=16;align=center;strokeColor=#F2FF15;fillColor=#F2FF15;shadow=0;sketch=1;fontStyle=1" parent="1" vertex="1">
                    <mxGeometry x="-171.25" y="1553.5" width="247" height="30" as="geometry"/>
                </mxCell>
                <mxCell id="ljsbQq2XFhJ2r-xU6_tJ-311" value="12" style="text;html=1;strokeColor=none;fillColor=none;align=center;verticalAlign=middle;whiteSpace=wrap;rounded=0;sketch=1;fontFamily=Lucida Console;fontSize=20;fontColor=#4D4D4D;" parent="1" vertex="1">
                    <mxGeometry x="-220" y="1553.5" width="60" height="30" as="geometry"/>
                </mxCell>
                <mxCell id="D8-KQS5gUGrc6W0yMjmw-281" value="batch_size" style="rounded=0;whiteSpace=wrap;html=1;glass=0;fontFamily=Lucida Console;fontSize=16;align=center;strokeColor=#F2FF15;fillColor=#F2FF15;shadow=0;sketch=1;fontStyle=1" parent="1" vertex="1">
                    <mxGeometry x="-171.25" y="1710.25" width="247" height="30" as="geometry"/>
                </mxCell>
                <mxCell id="ljsbQq2XFhJ2r-xU6_tJ-313" value="13" style="text;html=1;strokeColor=none;fillColor=none;align=center;verticalAlign=middle;whiteSpace=wrap;rounded=0;sketch=1;fontFamily=Lucida Console;fontSize=20;fontColor=#4D4D4D;" parent="1" vertex="1">
                    <mxGeometry x="-220" y="1710.25" width="60" height="30" as="geometry"/>
                </mxCell>
                <mxCell id="D8-KQS5gUGrc6W0yMjmw-284" value="number_of_cores" style="rounded=0;whiteSpace=wrap;html=1;glass=0;fontFamily=Lucida Console;fontSize=16;align=center;strokeColor=#F2FF15;fillColor=#F2FF15;shadow=0;sketch=1;fontStyle=1" parent="1" vertex="1">
                    <mxGeometry x="-171.25" y="1755.25" width="247" height="30" as="geometry"/>
                </mxCell>
                <mxCell id="ljsbQq2XFhJ2r-xU6_tJ-314" value="14" style="text;html=1;strokeColor=none;fillColor=none;align=center;verticalAlign=middle;whiteSpace=wrap;rounded=0;sketch=1;fontFamily=Lucida Console;fontSize=20;fontColor=#4D4D4D;" parent="1" vertex="1">
                    <mxGeometry x="-220" y="1755.25" width="60" height="30" as="geometry"/>
                </mxCell>
                <mxCell id="ljsbQq2XFhJ2r-xU6_tJ-5" value="default_burn" style="rounded=0;whiteSpace=wrap;html=1;glass=0;fontFamily=Lucida Console;fontSize=16;align=center;strokeColor=#F2FF15;fillColor=#F2FF15;shadow=0;sketch=1;fontStyle=1" parent="1" vertex="1">
                    <mxGeometry x="-171.25" y="1844.25" width="247" height="30" as="geometry"/>
                </mxCell>
                <mxCell id="ljsbQq2XFhJ2r-xU6_tJ-315" value="16" style="text;html=1;strokeColor=none;fillColor=none;align=center;verticalAlign=middle;whiteSpace=wrap;rounded=0;sketch=1;fontFamily=Lucida Console;fontSize=20;fontColor=#4D4D4D;" parent="1" vertex="1">
                    <mxGeometry x="-220" y="1844.25" width="60" height="30" as="geometry"/>
                </mxCell>
                <mxCell id="Xno3NGJmczsKOu3R2XB9-63" value="iteration_multiplier" style="rounded=0;whiteSpace=wrap;html=1;glass=0;fontFamily=Lucida Console;fontSize=16;align=center;strokeColor=#F2FF15;fillColor=#F2FF15;shadow=0;sketch=1;fontStyle=1" parent="1" vertex="1">
                    <mxGeometry x="-171.25" y="1933.25" width="247" height="30" as="geometry"/>
                </mxCell>
                <mxCell id="Xno3NGJmczsKOu3R2XB9-65" value="18" style="text;html=1;strokeColor=none;fillColor=none;align=center;verticalAlign=middle;whiteSpace=wrap;rounded=0;sketch=1;fontFamily=Lucida Console;fontSize=20;fontColor=#4D4D4D;" parent="1" vertex="1">
                    <mxGeometry x="-220" y="1932.25" width="64" height="32" as="geometry"/>
                </mxCell>
                <mxCell id="ljsbQq2XFhJ2r-xU6_tJ-6" value="default_thin" style="rounded=0;whiteSpace=wrap;html=1;glass=0;fontFamily=Lucida Console;fontSize=16;align=center;strokeColor=#F2FF15;fillColor=#F2FF15;shadow=0;sketch=1;fontStyle=1" parent="1" vertex="1">
                    <mxGeometry x="-171.25" y="1888.25" width="248" height="30" as="geometry"/>
                </mxCell>
                <mxCell id="ljsbQq2XFhJ2r-xU6_tJ-316" value="17" style="text;html=1;strokeColor=none;fillColor=none;align=center;verticalAlign=middle;whiteSpace=wrap;rounded=0;sketch=1;fontFamily=Lucida Console;fontSize=20;fontColor=#4D4D4D;" parent="1" vertex="1">
                    <mxGeometry x="-220" y="1889.5" width="55" height="27.5" as="geometry"/>
                </mxCell>
                <mxCell id="D8-KQS5gUGrc6W0yMjmw-286" value="default_iteration" style="rounded=0;whiteSpace=wrap;html=1;glass=0;fontFamily=Lucida Console;fontSize=16;align=center;strokeColor=#F2FF15;fillColor=#F2FF15;shadow=0;sketch=1;fontStyle=1" parent="1" vertex="1">
                    <mxGeometry x="-171.25" y="1799.25" width="247" height="30" as="geometry"/>
                </mxCell>
                <mxCell id="ljsbQq2XFhJ2r-xU6_tJ-318" value="15" style="text;html=1;strokeColor=none;fillColor=none;align=center;verticalAlign=middle;whiteSpace=wrap;rounded=0;sketch=1;fontFamily=Lucida Console;fontSize=20;fontColor=#4D4D4D;" parent="1" vertex="1">
                    <mxGeometry x="-220" y="1801.5" width="60" height="25.5" as="geometry"/>
                </mxCell>
                <mxCell id="Xno3NGJmczsKOu3R2XB9-64" value="set_seed" style="rounded=0;whiteSpace=wrap;html=1;glass=0;fontFamily=Lucida Console;fontSize=16;align=center;strokeColor=#F2FF15;fillColor=#F2FF15;shadow=0;sketch=1;fontStyle=1;container=1;" parent="1" vertex="1">
                    <mxGeometry x="-171.25" y="1977.25" width="247" height="30" as="geometry"/>
                </mxCell>
                <mxCell id="Xno3NGJmczsKOu3R2XB9-66" value="19" style="text;html=1;strokeColor=none;fillColor=none;align=center;verticalAlign=middle;whiteSpace=wrap;rounded=0;sketch=1;fontFamily=Lucida Console;fontSize=20;fontColor=#4D4D4D;" parent="1" vertex="1">
                    <mxGeometry x="-220" y="1977.25" width="60" height="30" as="geometry"/>
                </mxCell>
                <mxCell id="Xno3NGJmczsKOu3R2XB9-204" value="" style="group" parent="1" vertex="1" connectable="0">
                    <mxGeometry x="146.75" y="1393" width="180" height="90" as="geometry"/>
                </mxCell>
                <mxCell id="D8-KQS5gUGrc6W0yMjmw-247" value="Chron.control points" style="shape=table;html=1;whiteSpace=wrap;startSize=35;container=1;collapsible=0;childLayout=tableLayout;fontStyle=1;align=center;rounded=0;glass=1;fontFamily=Lucida Console;fontSize=15;sketch=1;strokeColor=#7F7F7F;" parent="Xno3NGJmczsKOu3R2XB9-204" vertex="1">
                    <mxGeometry x="-16" width="180" height="90" as="geometry"/>
                </mxCell>
                <mxCell id="D8-KQS5gUGrc6W0yMjmw-248" value="" style="shape=partialRectangle;html=1;whiteSpace=wrap;collapsible=0;dropTarget=0;pointerEvents=0;fillColor=none;top=0;left=0;bottom=0;right=0;points=[[0,0.5],[1,0.5]];portConstraint=eastwest;fontFamily=Lucida Console;" parent="D8-KQS5gUGrc6W0yMjmw-247" vertex="1">
                    <mxGeometry y="35" width="180" height="18" as="geometry"/>
                </mxCell>
                <mxCell id="D8-KQS5gUGrc6W0yMjmw-249" value="" style="shape=partialRectangle;html=1;whiteSpace=wrap;connectable=0;fillColor=none;top=0;left=0;bottom=0;right=0;overflow=hidden;fontFamily=Lucida Console;" parent="D8-KQS5gUGrc6W0yMjmw-248" vertex="1">
                    <mxGeometry width="60" height="18" as="geometry">
                        <mxRectangle width="60" height="18" as="alternateBounds"/>
                    </mxGeometry>
                </mxCell>
                <mxCell id="D8-KQS5gUGrc6W0yMjmw-250" value="" style="shape=partialRectangle;html=1;whiteSpace=wrap;connectable=0;fillColor=none;top=0;left=0;bottom=0;right=0;overflow=hidden;fontFamily=Lucida Console;" parent="D8-KQS5gUGrc6W0yMjmw-248" vertex="1">
                    <mxGeometry x="60" width="60" height="18" as="geometry">
                        <mxRectangle width="60" height="18" as="alternateBounds"/>
                    </mxGeometry>
                </mxCell>
                <mxCell id="D8-KQS5gUGrc6W0yMjmw-251" value="" style="shape=partialRectangle;html=1;whiteSpace=wrap;connectable=0;fillColor=none;top=0;left=0;bottom=0;right=0;overflow=hidden;fontFamily=Lucida Console;" parent="D8-KQS5gUGrc6W0yMjmw-248" vertex="1">
                    <mxGeometry x="120" width="60" height="18" as="geometry">
                        <mxRectangle width="60" height="18" as="alternateBounds"/>
                    </mxGeometry>
                </mxCell>
                <mxCell id="D8-KQS5gUGrc6W0yMjmw-252" value="" style="shape=partialRectangle;html=1;whiteSpace=wrap;collapsible=0;dropTarget=0;pointerEvents=0;fillColor=none;top=0;left=0;bottom=0;right=0;points=[[0,0.5],[1,0.5]];portConstraint=eastwest;fontFamily=Lucida Console;" parent="D8-KQS5gUGrc6W0yMjmw-247" vertex="1">
                    <mxGeometry y="53" width="180" height="19" as="geometry"/>
                </mxCell>
                <mxCell id="D8-KQS5gUGrc6W0yMjmw-253" value="" style="shape=partialRectangle;html=1;whiteSpace=wrap;connectable=0;fillColor=none;top=0;left=0;bottom=0;right=0;overflow=hidden;fontFamily=Lucida Console;" parent="D8-KQS5gUGrc6W0yMjmw-252" vertex="1">
                    <mxGeometry width="60" height="19" as="geometry">
                        <mxRectangle width="60" height="19" as="alternateBounds"/>
                    </mxGeometry>
                </mxCell>
                <mxCell id="D8-KQS5gUGrc6W0yMjmw-254" value="" style="shape=partialRectangle;html=1;whiteSpace=wrap;connectable=0;fillColor=none;top=0;left=0;bottom=0;right=0;overflow=hidden;fontFamily=Lucida Console;" parent="D8-KQS5gUGrc6W0yMjmw-252" vertex="1">
                    <mxGeometry x="60" width="60" height="19" as="geometry">
                        <mxRectangle width="60" height="19" as="alternateBounds"/>
                    </mxGeometry>
                </mxCell>
                <mxCell id="D8-KQS5gUGrc6W0yMjmw-255" value="" style="shape=partialRectangle;html=1;whiteSpace=wrap;connectable=0;fillColor=none;top=0;left=0;bottom=0;right=0;overflow=hidden;fontFamily=Lucida Console;" parent="D8-KQS5gUGrc6W0yMjmw-252" vertex="1">
                    <mxGeometry x="120" width="60" height="19" as="geometry">
                        <mxRectangle width="60" height="19" as="alternateBounds"/>
                    </mxGeometry>
                </mxCell>
                <mxCell id="D8-KQS5gUGrc6W0yMjmw-256" value="" style="shape=partialRectangle;html=1;whiteSpace=wrap;collapsible=0;dropTarget=0;pointerEvents=0;fillColor=none;top=0;left=0;bottom=0;right=0;points=[[0,0.5],[1,0.5]];portConstraint=eastwest;fontFamily=Lucida Console;" parent="D8-KQS5gUGrc6W0yMjmw-247" vertex="1">
                    <mxGeometry y="72" width="180" height="18" as="geometry"/>
                </mxCell>
                <mxCell id="D8-KQS5gUGrc6W0yMjmw-257" value="" style="shape=partialRectangle;html=1;whiteSpace=wrap;connectable=0;fillColor=none;top=0;left=0;bottom=0;right=0;overflow=hidden;fontFamily=Lucida Console;" parent="D8-KQS5gUGrc6W0yMjmw-256" vertex="1">
                    <mxGeometry width="60" height="18" as="geometry">
                        <mxRectangle width="60" height="18" as="alternateBounds"/>
                    </mxGeometry>
                </mxCell>
                <mxCell id="D8-KQS5gUGrc6W0yMjmw-258" value="" style="shape=partialRectangle;html=1;whiteSpace=wrap;connectable=0;fillColor=none;top=0;left=0;bottom=0;right=0;overflow=hidden;fontFamily=Lucida Console;" parent="D8-KQS5gUGrc6W0yMjmw-256" vertex="1">
                    <mxGeometry x="60" width="60" height="18" as="geometry">
                        <mxRectangle width="60" height="18" as="alternateBounds"/>
                    </mxGeometry>
                </mxCell>
                <mxCell id="D8-KQS5gUGrc6W0yMjmw-259" value="" style="shape=partialRectangle;html=1;whiteSpace=wrap;connectable=0;fillColor=none;top=0;left=0;bottom=0;right=0;overflow=hidden;fontFamily=Lucida Console;" parent="D8-KQS5gUGrc6W0yMjmw-256" vertex="1">
                    <mxGeometry x="120" width="60" height="18" as="geometry">
                        <mxRectangle width="60" height="18" as="alternateBounds"/>
                    </mxGeometry>
                </mxCell>
                <mxCell id="D8-KQS5gUGrc6W0yMjmw-273" value="" style="verticalLabelPosition=bottom;verticalAlign=top;html=1;shape=mxgraph.basic.tick;rounded=0;glass=1;fontFamily=Lucida Console;fontSize=15;align=left;fillColor=#00507B;strokeWidth=1;strokeColor=none;" parent="Xno3NGJmczsKOu3R2XB9-204" vertex="1">
                    <mxGeometry x="134" y="50" width="40" height="40" as="geometry"/>
                </mxCell>
                <mxCell id="D8-KQS5gUGrc6W0yMjmw-274" value="" style="verticalLabelPosition=bottom;verticalAlign=top;html=1;shape=mxgraph.basic.tick;rounded=0;glass=1;fontFamily=Lucida Console;fontSize=15;align=left;fillColor=#00507B;strokeWidth=1;strokeColor=none;" parent="Xno3NGJmczsKOu3R2XB9-204" vertex="1">
                    <mxGeometry x="134" y="28.5" width="40" height="40" as="geometry"/>
                </mxCell>
                <mxCell id="Xno3NGJmczsKOu3R2XB9-205" value="" style="group" parent="1" vertex="1" connectable="0">
                    <mxGeometry x="130.75" y="968.75" width="180" height="90" as="geometry"/>
                </mxCell>
                <mxCell id="D8-KQS5gUGrc6W0yMjmw-125" value="Potential duplictates" style="shape=table;html=1;whiteSpace=wrap;startSize=35;container=1;collapsible=0;childLayout=tableLayout;fontStyle=1;align=center;rounded=0;glass=1;fontFamily=Lucida Console;fontSize=15;sketch=1;strokeColor=#7F7F7F;" parent="Xno3NGJmczsKOu3R2XB9-205" vertex="1">
                    <mxGeometry width="180" height="90" as="geometry"/>
                </mxCell>
                <mxCell id="D8-KQS5gUGrc6W0yMjmw-126" value="" style="shape=partialRectangle;html=1;whiteSpace=wrap;collapsible=0;dropTarget=0;pointerEvents=0;fillColor=none;top=0;left=0;bottom=0;right=0;points=[[0,0.5],[1,0.5]];portConstraint=eastwest;fontFamily=Lucida Console;" parent="D8-KQS5gUGrc6W0yMjmw-125" vertex="1">
                    <mxGeometry y="35" width="180" height="18" as="geometry"/>
                </mxCell>
                <mxCell id="D8-KQS5gUGrc6W0yMjmw-127" value="" style="shape=partialRectangle;html=1;whiteSpace=wrap;connectable=0;fillColor=none;top=0;left=0;bottom=0;right=0;overflow=hidden;fontFamily=Lucida Console;" parent="D8-KQS5gUGrc6W0yMjmw-126" vertex="1">
                    <mxGeometry width="60" height="18" as="geometry">
                        <mxRectangle width="60" height="18" as="alternateBounds"/>
                    </mxGeometry>
                </mxCell>
                <mxCell id="D8-KQS5gUGrc6W0yMjmw-128" value="" style="shape=partialRectangle;html=1;whiteSpace=wrap;connectable=0;fillColor=none;top=0;left=0;bottom=0;right=0;overflow=hidden;fontFamily=Lucida Console;" parent="D8-KQS5gUGrc6W0yMjmw-126" vertex="1">
                    <mxGeometry x="60" width="60" height="18" as="geometry">
                        <mxRectangle width="60" height="18" as="alternateBounds"/>
                    </mxGeometry>
                </mxCell>
                <mxCell id="D8-KQS5gUGrc6W0yMjmw-129" value="" style="shape=partialRectangle;html=1;whiteSpace=wrap;connectable=0;fillColor=none;top=0;left=0;bottom=0;right=0;overflow=hidden;fontFamily=Lucida Console;" parent="D8-KQS5gUGrc6W0yMjmw-126" vertex="1">
                    <mxGeometry x="120" width="60" height="18" as="geometry">
                        <mxRectangle width="60" height="18" as="alternateBounds"/>
                    </mxGeometry>
                </mxCell>
                <mxCell id="D8-KQS5gUGrc6W0yMjmw-130" value="" style="shape=partialRectangle;html=1;whiteSpace=wrap;collapsible=0;dropTarget=0;pointerEvents=0;fillColor=none;top=0;left=0;bottom=0;right=0;points=[[0,0.5],[1,0.5]];portConstraint=eastwest;fontFamily=Lucida Console;" parent="D8-KQS5gUGrc6W0yMjmw-125" vertex="1">
                    <mxGeometry y="53" width="180" height="19" as="geometry"/>
                </mxCell>
                <mxCell id="D8-KQS5gUGrc6W0yMjmw-131" value="" style="shape=partialRectangle;html=1;whiteSpace=wrap;connectable=0;fillColor=none;top=0;left=0;bottom=0;right=0;overflow=hidden;fontFamily=Lucida Console;" parent="D8-KQS5gUGrc6W0yMjmw-130" vertex="1">
                    <mxGeometry width="60" height="19" as="geometry">
                        <mxRectangle width="60" height="19" as="alternateBounds"/>
                    </mxGeometry>
                </mxCell>
                <mxCell id="D8-KQS5gUGrc6W0yMjmw-132" value="" style="shape=partialRectangle;html=1;whiteSpace=wrap;connectable=0;fillColor=none;top=0;left=0;bottom=0;right=0;overflow=hidden;fontFamily=Lucida Console;" parent="D8-KQS5gUGrc6W0yMjmw-130" vertex="1">
                    <mxGeometry x="60" width="60" height="19" as="geometry">
                        <mxRectangle width="60" height="19" as="alternateBounds"/>
                    </mxGeometry>
                </mxCell>
                <mxCell id="D8-KQS5gUGrc6W0yMjmw-133" value="" style="shape=partialRectangle;html=1;whiteSpace=wrap;connectable=0;fillColor=none;top=0;left=0;bottom=0;right=0;overflow=hidden;fontFamily=Lucida Console;" parent="D8-KQS5gUGrc6W0yMjmw-130" vertex="1">
                    <mxGeometry x="120" width="60" height="19" as="geometry">
                        <mxRectangle width="60" height="19" as="alternateBounds"/>
                    </mxGeometry>
                </mxCell>
                <mxCell id="D8-KQS5gUGrc6W0yMjmw-134" value="" style="shape=partialRectangle;html=1;whiteSpace=wrap;collapsible=0;dropTarget=0;pointerEvents=0;fillColor=none;top=0;left=0;bottom=0;right=0;points=[[0,0.5],[1,0.5]];portConstraint=eastwest;fontFamily=Lucida Console;" parent="D8-KQS5gUGrc6W0yMjmw-125" vertex="1">
                    <mxGeometry y="72" width="180" height="18" as="geometry"/>
                </mxCell>
                <mxCell id="D8-KQS5gUGrc6W0yMjmw-135" value="" style="shape=partialRectangle;html=1;whiteSpace=wrap;connectable=0;fillColor=none;top=0;left=0;bottom=0;right=0;overflow=hidden;fontFamily=Lucida Console;" parent="D8-KQS5gUGrc6W0yMjmw-134" vertex="1">
                    <mxGeometry width="60" height="18" as="geometry">
                        <mxRectangle width="60" height="18" as="alternateBounds"/>
                    </mxGeometry>
                </mxCell>
                <mxCell id="D8-KQS5gUGrc6W0yMjmw-136" value="" style="shape=partialRectangle;html=1;whiteSpace=wrap;connectable=0;fillColor=none;top=0;left=0;bottom=0;right=0;overflow=hidden;fontFamily=Lucida Console;" parent="D8-KQS5gUGrc6W0yMjmw-134" vertex="1">
                    <mxGeometry x="60" width="60" height="18" as="geometry">
                        <mxRectangle width="60" height="18" as="alternateBounds"/>
                    </mxGeometry>
                </mxCell>
                <mxCell id="D8-KQS5gUGrc6W0yMjmw-137" value="" style="shape=partialRectangle;html=1;whiteSpace=wrap;connectable=0;fillColor=none;top=0;left=0;bottom=0;right=0;overflow=hidden;fontFamily=Lucida Console;" parent="D8-KQS5gUGrc6W0yMjmw-134" vertex="1">
                    <mxGeometry x="120" width="60" height="18" as="geometry">
                        <mxRectangle width="60" height="18" as="alternateBounds"/>
                    </mxGeometry>
                </mxCell>
                <mxCell id="D8-KQS5gUGrc6W0yMjmw-138" value="" style="verticalLabelPosition=bottom;verticalAlign=top;html=1;shape=mxgraph.basic.tick;rounded=0;glass=1;fontFamily=Lucida Console;fontSize=15;align=left;fillColor=#00507B;strokeWidth=1;strokeColor=none;" parent="Xno3NGJmczsKOu3R2XB9-205" vertex="1">
                    <mxGeometry x="130.25" y="25" width="40" height="40" as="geometry"/>
                </mxCell>
                <mxCell id="D8-KQS5gUGrc6W0yMjmw-139" value="" style="verticalLabelPosition=bottom;verticalAlign=top;html=1;shape=mxgraph.basic.tick;rounded=0;glass=1;fontFamily=Lucida Console;fontSize=15;align=left;fillColor=#00507B;strokeWidth=1;strokeColor=none;" parent="Xno3NGJmczsKOu3R2XB9-205" vertex="1">
                    <mxGeometry x="134.25" y="50" width="40" height="40" as="geometry"/>
                </mxCell>
                <mxCell id="Xno3NGJmczsKOu3R2XB9-206" value="" style="group" parent="1" vertex="1" connectable="0">
                    <mxGeometry x="130" y="584.25" width="180.75" height="90" as="geometry"/>
                </mxCell>
                <mxCell id="D8-KQS5gUGrc6W0yMjmw-35" value="Ecological groups" style="shape=table;html=1;whiteSpace=wrap;startSize=30;container=1;collapsible=0;childLayout=tableLayout;fontStyle=1;align=center;rounded=0;glass=1;fontFamily=Lucida Console;fontSize=15;sketch=1;strokeColor=#7F7F7F;" parent="Xno3NGJmczsKOu3R2XB9-206" vertex="1">
                    <mxGeometry x="0.75" width="180" height="90" as="geometry"/>
                </mxCell>
                <mxCell id="D8-KQS5gUGrc6W0yMjmw-36" value="" style="shape=partialRectangle;html=1;whiteSpace=wrap;collapsible=0;dropTarget=0;pointerEvents=0;fillColor=none;top=0;left=0;bottom=0;right=0;points=[[0,0.5],[1,0.5]];portConstraint=eastwest;fontFamily=Lucida Console;" parent="D8-KQS5gUGrc6W0yMjmw-35" vertex="1">
                    <mxGeometry y="30" width="180" height="20" as="geometry"/>
                </mxCell>
                <mxCell id="D8-KQS5gUGrc6W0yMjmw-37" value="" style="shape=partialRectangle;html=1;whiteSpace=wrap;connectable=0;fillColor=none;top=0;left=0;bottom=0;right=0;overflow=hidden;fontFamily=Lucida Console;" parent="D8-KQS5gUGrc6W0yMjmw-36" vertex="1">
                    <mxGeometry width="60" height="20" as="geometry">
                        <mxRectangle width="60" height="20" as="alternateBounds"/>
                    </mxGeometry>
                </mxCell>
                <mxCell id="D8-KQS5gUGrc6W0yMjmw-38" value="" style="shape=partialRectangle;html=1;whiteSpace=wrap;connectable=0;fillColor=none;top=0;left=0;bottom=0;right=0;overflow=hidden;fontFamily=Lucida Console;" parent="D8-KQS5gUGrc6W0yMjmw-36" vertex="1">
                    <mxGeometry x="60" width="60" height="20" as="geometry">
                        <mxRectangle width="60" height="20" as="alternateBounds"/>
                    </mxGeometry>
                </mxCell>
                <mxCell id="D8-KQS5gUGrc6W0yMjmw-39" value="" style="shape=partialRectangle;html=1;whiteSpace=wrap;connectable=0;fillColor=none;top=0;left=0;bottom=0;right=0;overflow=hidden;fontFamily=Lucida Console;" parent="D8-KQS5gUGrc6W0yMjmw-36" vertex="1">
                    <mxGeometry x="120" width="60" height="20" as="geometry">
                        <mxRectangle width="60" height="20" as="alternateBounds"/>
                    </mxGeometry>
                </mxCell>
                <mxCell id="D8-KQS5gUGrc6W0yMjmw-40" value="" style="shape=partialRectangle;html=1;whiteSpace=wrap;collapsible=0;dropTarget=0;pointerEvents=0;fillColor=none;top=0;left=0;bottom=0;right=0;points=[[0,0.5],[1,0.5]];portConstraint=eastwest;fontFamily=Lucida Console;" parent="D8-KQS5gUGrc6W0yMjmw-35" vertex="1">
                    <mxGeometry y="50" width="180" height="20" as="geometry"/>
                </mxCell>
                <mxCell id="D8-KQS5gUGrc6W0yMjmw-41" value="" style="shape=partialRectangle;html=1;whiteSpace=wrap;connectable=0;fillColor=none;top=0;left=0;bottom=0;right=0;overflow=hidden;fontFamily=Lucida Console;" parent="D8-KQS5gUGrc6W0yMjmw-40" vertex="1">
                    <mxGeometry width="60" height="20" as="geometry">
                        <mxRectangle width="60" height="20" as="alternateBounds"/>
                    </mxGeometry>
                </mxCell>
                <mxCell id="D8-KQS5gUGrc6W0yMjmw-42" value="" style="shape=partialRectangle;html=1;whiteSpace=wrap;connectable=0;fillColor=none;top=0;left=0;bottom=0;right=0;overflow=hidden;fontFamily=Lucida Console;" parent="D8-KQS5gUGrc6W0yMjmw-40" vertex="1">
                    <mxGeometry x="60" width="60" height="20" as="geometry">
                        <mxRectangle width="60" height="20" as="alternateBounds"/>
                    </mxGeometry>
                </mxCell>
                <mxCell id="D8-KQS5gUGrc6W0yMjmw-43" value="" style="shape=partialRectangle;html=1;whiteSpace=wrap;connectable=0;fillColor=none;top=0;left=0;bottom=0;right=0;overflow=hidden;fontFamily=Lucida Console;" parent="D8-KQS5gUGrc6W0yMjmw-40" vertex="1">
                    <mxGeometry x="120" width="60" height="20" as="geometry">
                        <mxRectangle width="60" height="20" as="alternateBounds"/>
                    </mxGeometry>
                </mxCell>
                <mxCell id="D8-KQS5gUGrc6W0yMjmw-44" value="" style="shape=partialRectangle;html=1;whiteSpace=wrap;collapsible=0;dropTarget=0;pointerEvents=0;fillColor=none;top=0;left=0;bottom=0;right=0;points=[[0,0.5],[1,0.5]];portConstraint=eastwest;fontFamily=Lucida Console;" parent="D8-KQS5gUGrc6W0yMjmw-35" vertex="1">
                    <mxGeometry y="70" width="180" height="20" as="geometry"/>
                </mxCell>
                <mxCell id="D8-KQS5gUGrc6W0yMjmw-45" value="" style="shape=partialRectangle;html=1;whiteSpace=wrap;connectable=0;fillColor=none;top=0;left=0;bottom=0;right=0;overflow=hidden;fontFamily=Lucida Console;" parent="D8-KQS5gUGrc6W0yMjmw-44" vertex="1">
                    <mxGeometry width="60" height="20" as="geometry">
                        <mxRectangle width="60" height="20" as="alternateBounds"/>
                    </mxGeometry>
                </mxCell>
                <mxCell id="D8-KQS5gUGrc6W0yMjmw-46" value="" style="shape=partialRectangle;html=1;whiteSpace=wrap;connectable=0;fillColor=none;top=0;left=0;bottom=0;right=0;overflow=hidden;fontFamily=Lucida Console;" parent="D8-KQS5gUGrc6W0yMjmw-44" vertex="1">
                    <mxGeometry x="60" width="60" height="20" as="geometry">
                        <mxRectangle width="60" height="20" as="alternateBounds"/>
                    </mxGeometry>
                </mxCell>
                <mxCell id="D8-KQS5gUGrc6W0yMjmw-47" value="" style="shape=partialRectangle;html=1;whiteSpace=wrap;connectable=0;fillColor=none;top=0;left=0;bottom=0;right=0;overflow=hidden;fontFamily=Lucida Console;" parent="D8-KQS5gUGrc6W0yMjmw-44" vertex="1">
                    <mxGeometry x="120" width="60" height="20" as="geometry">
                        <mxRectangle width="60" height="20" as="alternateBounds"/>
                    </mxGeometry>
                </mxCell>
                <mxCell id="D8-KQS5gUGrc6W0yMjmw-52" value="" style="verticalLabelPosition=bottom;verticalAlign=top;html=1;shape=mxgraph.basic.tick;rounded=0;glass=1;fontFamily=Lucida Console;fontSize=15;align=left;fillColor=#00507B;strokeWidth=1;strokeColor=none;" parent="Xno3NGJmczsKOu3R2XB9-206" vertex="1">
                    <mxGeometry x="132" y="25.5" width="40" height="40" as="geometry"/>
                </mxCell>
                <mxCell id="D8-KQS5gUGrc6W0yMjmw-53" value="" style="verticalLabelPosition=bottom;verticalAlign=top;html=1;shape=mxgraph.basic.tick;rounded=0;glass=1;fontFamily=Lucida Console;fontSize=15;align=left;fillColor=#00507B;strokeWidth=1;strokeColor=none;" parent="Xno3NGJmczsKOu3R2XB9-206" vertex="1">
                    <mxGeometry x="135" y="44.5" width="40" height="40" as="geometry"/>
                </mxCell>
                <mxCell id="Xno3NGJmczsKOu3R2XB9-207" value="" style="strokeWidth=3;html=1;shape=mxgraph.flowchart.stored_data;whiteSpace=wrap;rounded=0;glass=1;fillColor=#FF2215;fontFamily=Lucida Console;fontSize=15;align=left;sketch=1;strokeColor=#FFFFFF;" parent="1" vertex="1">
                    <mxGeometry x="-389" y="1111" width="100" height="30" as="geometry"/>
                </mxCell>
                <mxCell id="Xno3NGJmczsKOu3R2XB9-208" value="26" style="text;html=1;strokeColor=none;fillColor=none;align=center;verticalAlign=middle;whiteSpace=wrap;rounded=0;sketch=1;fontFamily=Lucida Console;fontSize=20;fontColor=#4D4D4D;" parent="1" vertex="1">
                    <mxGeometry x="1003.5" y="916.75" width="60" height="30" as="geometry"/>
                </mxCell>
                <mxCell id="Xno3NGJmczsKOu3R2XB9-209" value="27" style="text;html=1;strokeColor=none;fillColor=none;align=center;verticalAlign=middle;whiteSpace=wrap;rounded=0;sketch=1;fontFamily=Lucida Console;fontSize=20;fontColor=#4D4D4D;" parent="1" vertex="1">
                    <mxGeometry x="1003.5" y="957.75" width="60" height="30" as="geometry"/>
                </mxCell>
                <mxCell id="Xno3NGJmczsKOu3R2XB9-210" value="28" style="text;html=1;strokeColor=none;fillColor=none;align=center;verticalAlign=middle;whiteSpace=wrap;rounded=0;sketch=1;fontFamily=Lucida Console;fontSize=20;fontColor=#4D4D4D;" parent="1" vertex="1">
                    <mxGeometry x="1003.5" y="998.75" width="60" height="30" as="geometry"/>
                </mxCell>
                <mxCell id="Xno3NGJmczsKOu3R2XB9-211" value="29" style="text;html=1;strokeColor=none;fillColor=none;align=center;verticalAlign=middle;whiteSpace=wrap;rounded=0;sketch=1;fontFamily=Lucida Console;fontSize=20;fontColor=#4D4D4D;" parent="1" vertex="1">
                    <mxGeometry x="1003.5" y="1039.75" width="60" height="30" as="geometry"/>
                </mxCell>
                <mxCell id="Xno3NGJmczsKOu3R2XB9-212" value="30" style="text;html=1;strokeColor=none;fillColor=none;align=center;verticalAlign=middle;whiteSpace=wrap;rounded=0;sketch=1;fontFamily=Lucida Console;fontSize=20;fontColor=#4D4D4D;" parent="1" vertex="1">
                    <mxGeometry x="1004" y="1090.5" width="60" height="30" as="geometry"/>
                </mxCell>
                <mxCell id="Xno3NGJmczsKOu3R2XB9-213" value="31" style="text;html=1;strokeColor=none;fillColor=none;align=center;verticalAlign=middle;whiteSpace=wrap;rounded=0;sketch=1;fontFamily=Lucida Console;fontSize=20;fontColor=#4D4D4D;" parent="1" vertex="1">
                    <mxGeometry x="1003.5" y="1122.5" width="60" height="30" as="geometry"/>
                </mxCell>
                <mxCell id="Xno3NGJmczsKOu3R2XB9-214" value="01_Pollen_diagrams.R" style="text;whiteSpace=wrap;fontSize=19;fontFamily=Lucida Console;fontColor=#FFFFFF;fontStyle=1;rotation=0;fillColor=none;labelBackgroundColor=none;labelBorderColor=none;" parent="1" vertex="1">
                    <mxGeometry x="988.5" y="1335" width="444.5" height="30" as="geometry"/>
                </mxCell>
                <mxCell id="Xno3NGJmczsKOu3R2XB9-215" value="&lt;font style=&quot;font-size: 20px;&quot;&gt;&amp;nbsp;Pollen diagrams&lt;/font&gt;" style="strokeWidth=2;html=1;shape=mxgraph.flowchart.multi-document;whiteSpace=wrap;rounded=0;shadow=1;glass=0;sketch=0;fillColor=#ffffff;fontFamily=Lucida Console;fontSize=15;align=left;strokeColor=#000000;" parent="1" vertex="1">
                    <mxGeometry x="1065.25" y="1385.6200000000001" width="240" height="87.25" as="geometry"/>
                </mxCell>
                <mxCell id="Xno3NGJmczsKOu3R2XB9-218" value="02_Save_assembly.R" style="text;whiteSpace=wrap;fontSize=19;fontFamily=Lucida Console;fontColor=#FFFFFF;fontStyle=1;rotation=0;fillColor=none;labelBackgroundColor=none;labelBorderColor=none;" parent="1" vertex="1">
                    <mxGeometry x="988.5" y="1520" width="231.5" height="30" as="geometry"/>
                </mxCell>
                <mxCell id="ljsbQq2XFhJ2r-xU6_tJ-245" value="final &lt;br&gt;dataset &lt;br&gt;compilation" style="text;strokeColor=none;fillColor=none;html=1;fontSize=24;fontStyle=1;verticalAlign=middle;align=center;sketch=0;fontFamily=Lucida Console;fontColor=default;" parent="1" vertex="1">
                    <mxGeometry x="1300" y="1555.75" width="190" height="110" as="geometry"/>
                </mxCell>
                <mxCell id="Xno3NGJmczsKOu3R2XB9-220" value="" style="rounded=1;whiteSpace=wrap;html=1;absoluteArcSize=1;arcSize=14;strokeWidth=3;shadow=1;glass=0;sketch=0;fillColor=#ffffff;fontFamily=Lucida Console;fontSize=15;align=left;strokeColor=#7F7F7F;" parent="1" vertex="1">
                    <mxGeometry x="984.5" y="1726" width="549.5" height="121.5" as="geometry"/>
                </mxCell>
                <mxCell id="ljsbQq2XFhJ2r-xU6_tJ-259" value="citation metadata" style="shape=table;startSize=30;container=1;collapsible=0;childLayout=tableLayout;fontStyle=1;align=center;pointerEvents=1;sketch=1;fontFamily=Lucida Console;fontSize=20;fillColor=#B3B3B3;" parent="1" vertex="1">
                    <mxGeometry x="1003.5" y="1741.75" width="270" height="90" as="geometry"/>
                </mxCell>
                <mxCell id="ljsbQq2XFhJ2r-xU6_tJ-260" value="" style="shape=partialRectangle;html=1;whiteSpace=wrap;collapsible=0;dropTarget=0;pointerEvents=0;fillColor=none;top=0;left=0;bottom=0;right=0;points=[[0,0.5],[1,0.5]];portConstraint=eastwest;sketch=0;fontFamily=Lucida Console;fontSize=20;" parent="ljsbQq2XFhJ2r-xU6_tJ-259" vertex="1">
                    <mxGeometry y="30" width="270" height="20" as="geometry"/>
                </mxCell>
                <mxCell id="ljsbQq2XFhJ2r-xU6_tJ-261" value="" style="shape=partialRectangle;html=1;whiteSpace=wrap;connectable=0;fillColor=none;top=0;left=0;bottom=0;right=0;overflow=hidden;pointerEvents=1;sketch=0;fontFamily=Lucida Console;fontSize=20;" parent="ljsbQq2XFhJ2r-xU6_tJ-260" vertex="1">
                    <mxGeometry width="90" height="20" as="geometry">
                        <mxRectangle width="90" height="20" as="alternateBounds"/>
                    </mxGeometry>
                </mxCell>
                <mxCell id="ljsbQq2XFhJ2r-xU6_tJ-262" value="" style="shape=partialRectangle;html=1;whiteSpace=wrap;connectable=0;fillColor=none;top=0;left=0;bottom=0;right=0;overflow=hidden;pointerEvents=1;sketch=0;fontFamily=Lucida Console;fontSize=20;" parent="ljsbQq2XFhJ2r-xU6_tJ-260" vertex="1">
                    <mxGeometry x="90" width="90" height="20" as="geometry">
                        <mxRectangle width="90" height="20" as="alternateBounds"/>
                    </mxGeometry>
                </mxCell>
                <mxCell id="ljsbQq2XFhJ2r-xU6_tJ-263" value="" style="shape=partialRectangle;html=1;whiteSpace=wrap;connectable=0;fillColor=none;top=0;left=0;bottom=0;right=0;overflow=hidden;pointerEvents=1;sketch=0;fontFamily=Lucida Console;fontSize=20;" parent="ljsbQq2XFhJ2r-xU6_tJ-260" vertex="1">
                    <mxGeometry x="180" width="90" height="20" as="geometry">
                        <mxRectangle width="90" height="20" as="alternateBounds"/>
                    </mxGeometry>
                </mxCell>
                <mxCell id="ljsbQq2XFhJ2r-xU6_tJ-264" value="" style="shape=partialRectangle;html=1;whiteSpace=wrap;collapsible=0;dropTarget=0;pointerEvents=0;fillColor=none;top=0;left=0;bottom=0;right=0;points=[[0,0.5],[1,0.5]];portConstraint=eastwest;sketch=0;fontFamily=Lucida Console;fontSize=20;" parent="ljsbQq2XFhJ2r-xU6_tJ-259" vertex="1">
                    <mxGeometry y="50" width="270" height="20" as="geometry"/>
                </mxCell>
                <mxCell id="ljsbQq2XFhJ2r-xU6_tJ-265" value="" style="shape=partialRectangle;html=1;whiteSpace=wrap;connectable=0;fillColor=none;top=0;left=0;bottom=0;right=0;overflow=hidden;pointerEvents=1;sketch=0;fontFamily=Lucida Console;fontSize=20;" parent="ljsbQq2XFhJ2r-xU6_tJ-264" vertex="1">
                    <mxGeometry width="90" height="20" as="geometry">
                        <mxRectangle width="90" height="20" as="alternateBounds"/>
                    </mxGeometry>
                </mxCell>
                <mxCell id="ljsbQq2XFhJ2r-xU6_tJ-266" value="" style="shape=partialRectangle;html=1;whiteSpace=wrap;connectable=0;fillColor=none;top=0;left=0;bottom=0;right=0;overflow=hidden;pointerEvents=1;sketch=0;fontFamily=Lucida Console;fontSize=20;" parent="ljsbQq2XFhJ2r-xU6_tJ-264" vertex="1">
                    <mxGeometry x="90" width="90" height="20" as="geometry">
                        <mxRectangle width="90" height="20" as="alternateBounds"/>
                    </mxGeometry>
                </mxCell>
                <mxCell id="ljsbQq2XFhJ2r-xU6_tJ-267" value="" style="shape=partialRectangle;html=1;whiteSpace=wrap;connectable=0;fillColor=none;top=0;left=0;bottom=0;right=0;overflow=hidden;pointerEvents=1;sketch=0;fontFamily=Lucida Console;fontSize=20;" parent="ljsbQq2XFhJ2r-xU6_tJ-264" vertex="1">
                    <mxGeometry x="180" width="90" height="20" as="geometry">
                        <mxRectangle width="90" height="20" as="alternateBounds"/>
                    </mxGeometry>
                </mxCell>
                <mxCell id="ljsbQq2XFhJ2r-xU6_tJ-268" value="" style="shape=partialRectangle;html=1;whiteSpace=wrap;collapsible=0;dropTarget=0;pointerEvents=0;fillColor=none;top=0;left=0;bottom=0;right=0;points=[[0,0.5],[1,0.5]];portConstraint=eastwest;sketch=0;fontFamily=Lucida Console;fontSize=20;" parent="ljsbQq2XFhJ2r-xU6_tJ-259" vertex="1">
                    <mxGeometry y="70" width="270" height="20" as="geometry"/>
                </mxCell>
                <mxCell id="ljsbQq2XFhJ2r-xU6_tJ-269" value="" style="shape=partialRectangle;html=1;whiteSpace=wrap;connectable=0;fillColor=none;top=0;left=0;bottom=0;right=0;overflow=hidden;pointerEvents=1;sketch=0;fontFamily=Lucida Console;fontSize=20;" parent="ljsbQq2XFhJ2r-xU6_tJ-268" vertex="1">
                    <mxGeometry width="90" height="20" as="geometry">
                        <mxRectangle width="90" height="20" as="alternateBounds"/>
                    </mxGeometry>
                </mxCell>
                <mxCell id="ljsbQq2XFhJ2r-xU6_tJ-270" value="" style="shape=partialRectangle;html=1;whiteSpace=wrap;connectable=0;fillColor=none;top=0;left=0;bottom=0;right=0;overflow=hidden;pointerEvents=1;sketch=0;fontFamily=Lucida Console;fontSize=20;" parent="ljsbQq2XFhJ2r-xU6_tJ-268" vertex="1">
                    <mxGeometry x="90" width="90" height="20" as="geometry">
                        <mxRectangle width="90" height="20" as="alternateBounds"/>
                    </mxGeometry>
                </mxCell>
                <mxCell id="ljsbQq2XFhJ2r-xU6_tJ-271" value="" style="shape=partialRectangle;html=1;whiteSpace=wrap;connectable=0;fillColor=none;top=0;left=0;bottom=0;right=0;overflow=hidden;pointerEvents=1;sketch=0;fontFamily=Lucida Console;fontSize=20;" parent="ljsbQq2XFhJ2r-xU6_tJ-268" vertex="1">
                    <mxGeometry x="180" width="90" height="20" as="geometry">
                        <mxRectangle width="90" height="20" as="alternateBounds"/>
                    </mxGeometry>
                </mxCell>
                <mxCell id="Xno3NGJmczsKOu3R2XB9-228" value="&lt;b style=&quot;font-size: 60px&quot;&gt;&lt;font style=&quot;font-size: 60px&quot;&gt;VII&lt;/font&gt;&lt;/b&gt;" style="text;html=1;strokeColor=none;fillColor=none;align=center;verticalAlign=middle;whiteSpace=wrap;rounded=0;sketch=0;fontFamily=Lucida Console;fontSize=60;fontColor=#FFFFFF;" parent="1" vertex="1">
                    <mxGeometry x="890" y="1521.25" width="60" height="150" as="geometry"/>
                </mxCell>
                <mxCell id="4-9ThezMg6ETQRoq21p--3" style="edgeStyle=orthogonalEdgeStyle;rounded=0;orthogonalLoop=1;jettySize=auto;html=1;fontSize=15;fontFamily=Lucida Console;strokeColor=#4D4D4D;sketch=0;strokeWidth=5;" parent="1" source="4-9ThezMg6ETQRoq21p--1" target="Xno3NGJmczsKOu3R2XB9-194" edge="1">
                    <mxGeometry relative="1" as="geometry"/>
                </mxCell>
                <mxCell id="4-9ThezMg6ETQRoq21p--1" value="" style="strokeWidth=3;html=1;shape=mxgraph.flowchart.stored_data;whiteSpace=wrap;rounded=0;glass=1;fillColor=#FF2215;fontFamily=Lucida Console;fontSize=15;align=left;sketch=1;strokeColor=#4D4D4D;" parent="1" vertex="1">
                    <mxGeometry x="578.5" y="1231.75" width="100" height="30" as="geometry"/>
                </mxCell>
                <mxCell id="2" value="&lt;font style=&quot;font-size: 16px;&quot;&gt;graphical &lt;br&gt;visualisations of outputs&lt;/font&gt;" style="strokeWidth=2;html=1;shape=mxgraph.flowchart.multi-document;whiteSpace=wrap;rounded=0;shadow=1;glass=0;sketch=0;fillColor=#ffffff;fontFamily=Lucida Console;fontSize=15;align=center;strokeColor=#000000;" parent="1" vertex="1">
                    <mxGeometry x="1283" y="1741.63" width="240" height="87.25" as="geometry"/>
                </mxCell>
            </root>
        </mxGraphModel>
    </diagram>
</mxfile>